<svg xmlns="http://www.w3.org/2000/svg" xmlns:xlink="http://www.w3.org/1999/xlink" width="1120" height="765" viewBox="0 0 1120 765">

<style>
.S1  {stroke: #de4da4} .S1f  {fill: #de4da4}
.S2  {stroke: #005f27} .S2f  {fill: #005f27}
.S3  {stroke: #0a4c99} .S3f  {fill: #0a4c99}
.S5  {stroke: #ff5900} .S5f  {fill: #ff5900}
.S7  {stroke: #6f4e9c} .S7f  {fill: #6f4e9c}
.S8  {stroke: #55a822} .S8f  {fill: #55a822}
.S9  {stroke: #8a0e30} .S9f  {fill: #8a0e30}
.S25 {stroke: #005f27} .S25f {fill: #005f27}
.S41 {stroke: #a23b1e} .S41f {fill: #a23b1e}
.S42 {stroke: #c26a36} .S42f {fill: #c26a36}
.S45 {stroke: #c38737} .S45f {fill: #c38737}
.S46 {stroke: #c38737} .S46f {fill: #c38737}
.S47 {stroke: #c38737} .S47f {fill: #c38737}
.S75 {stroke: #6f4e9c} .S75f {fill: #6f4e9c}
.S85 {stroke: #55a822} .S85f {fill: #55a822}
.U1  {stroke: #55a822} .U1f  {fill: #55a822}
.U2  {stroke: #ff3300} .U2f  {fill: #ff3300}
.U3  {stroke: #019377} .U3f  {fill: #019377}
.U4  {stroke: #ffd900} .U4f  {fill: #ffd900}
.U5  {stroke: #672f17} .U5f  {fill: #672f17}
.U6  {stroke: #6f4e9c} .U6f  {fill: #6f4e9c}
.U7  {stroke: #3690c0} .U7f  {fill: #3690c0}
.U8  {stroke: #0a3c85} .U8f  {fill: #0a3c85}
.U9  {stroke: #ff7300} .U9f  {fill: #ff7300}
.U55 {stroke: #672f17} .U55f {fill: #672f17}
</style>

<defs>
	<g id="label-S1">
		<path class="S1f" d="M3.775 7.497h7.476a3.749 3.749 0 0 0 0-7.497H3.775a3.749 3.749 0 0 0 0 7.497z"/>
		<path fill="#FFF" d="M6.297 1.06l-.099.894c-.265-.13-.734-.233-1.115-.233-.367 0-.851.175-.851.711 0 .993 2.388.6 2.388 2.43 0 1.019-.838 1.665-2.038 1.665-.606 0-.874-.076-1.407-.204l.099-.984c.382.206.81.313 1.243.311.408 0 .973-.21.973-.704 0-1.034-2.406-.612-2.406-2.412 0-1.008.732-1.672 1.914-1.672.466 0 .918.064 1.3.198zM8.48 2.231l1.599-1.27h.95v5.482H9.943V2.196l-.915.763-.55-.728z"/>
	</g>
	<g id="label-S2">
		<path class="S2f" d="M3.775 7.497h7.476a3.749 3.749 0 0 0 0-7.497H3.775a3.749 3.749 0 0 0 0 7.497z"/>
		<path fill="#FFF" d="M11.817 6.443h-3.63v-.926c.501-.487 2.374-2.04 2.374-3.053 0-.5-.448-.746-.909-.746-.457 0-.89.204-1.258.455l-.081-.903A3.317 3.317 0 0 1 9.938.868c1.04 0 1.715.533 1.715 1.596 0 1.156-1.176 2.243-2.068 3.11h2.232v.869zM6.297 1.06l-.099.897a2.79 2.79 0 0 0-1.115-.239c-.367 0-.851.178-.851.714 0 .996 2.388.603 2.388 2.432 0 1.02-.838 1.663-2.038 1.663-.606 0-.874-.073-1.407-.198l.099-.99c.382.204.81.31 1.243.309.408 0 .973-.207.973-.7 0-1.036-2.406-.611-2.406-2.417C3.084 1.53 3.816.86 4.998.86c.466 0 .918.067 1.3.204V1.06z"/>
	</g>
	<g id="label-S3">
		<path class="S3f" d="M3.756 7.512h7.488a3.756 3.756 0 1 0 0-7.512H3.756a3.756 3.756 0 1 0 0 7.512z"/>
		<path fill="#FFF" d="M6.306 1.065l-.099.89a2.83 2.83 0 0 0-1.12-.233c-.365 0-.85.175-.85.712 0 .995 2.393.601 2.393 2.437 0 1.021-.84 1.666-2.042 1.666-.61 0-.876-.076-1.41-.204l.1-.987c.382.208.81.317 1.245.315.409 0 .975-.21.975-.703 0-1.039-2.413-.613-2.413-2.422 0-1.004.735-1.672 1.92-1.672.467 0 .92.064 1.301.201zm1.918 5.309l.067-.949c.386.164.8.254 1.22.263.437 0 1.158-.22 1.158-.788 0-.645-.525-.864-1.22-.864h-.534v-.855h.52c.732 0 1.193-.257 1.193-.744 0-.526-.443-.712-.933-.712a2.73 2.73 0 0 0-1.22.286l-.082-.855A4.048 4.048 0 0 1 9.925.87c.686 0 1.804.236 1.804 1.4 0 .745-.467 1.095-1.001 1.322v.018c.683.073 1.033.636 1.033 1.296 0 1.316-1.182 1.634-2.093 1.634a6.203 6.203 0 0 1-1.444-.166z"/>
	</g>
	<g id="label-S5">
		<path class="S5f" d="M3.775 7.497h7.476a3.749 3.749 0 0 0 0-7.497H3.775a3.749 3.749 0 0 0 0 7.497z"/>
		<path fill="#FFF" d="M6.32 1.06l-.096.894c-.268-.13-.734-.233-1.118-.233-.367 0-.848.175-.848.711 0 .993 2.389.603 2.389 2.432 0 1.02-.84 1.66-2.04 1.66-.608 0-.873-.073-1.406-.198l.099-.984c.382.204.808.31 1.24.308.409 0 .977-.21.977-.701 0-1.037-2.406-.612-2.406-2.418 0-1.002.73-1.669 1.913-1.669.466 0 .918.067 1.3.198H6.32zm5.397-.09v.807H9.62l-.035 1.17c.117-.026.286-.049.501-.049.766 0 1.765.34 1.765 1.762 0 1.046-.734 1.864-2.123 1.864-.425 0-.923-.058-1.29-.134l.04-1.002c.26.108.633.283 1.107.283.583 0 1.16-.26 1.16-.97 0-.717-.61-.935-1.241-.935-.335 0-.65.035-.985.125L8.572.967h3.145V.97z"/>
	</g>
	<g id="label-S7">
		<path class="S7f" d="M3.775 7.497h7.476a3.749 3.749 0 0 0 0-7.497H3.775a3.749 3.749 0 0 0 0 7.497z"/>
		<path fill="#FFF" d="M6.32 1.063l-.093.888a2.825 2.825 0 0 0-1.115-.233c-.367 0-.85.175-.85.711 0 .993 2.388.6 2.388 2.43 0 1.019-.84 1.665-2.04 1.665-.608 0-.873-.075-1.406-.204l.099-.984c.38.207.807.315 1.24.314.408 0 .976-.21.976-.701 0-1.037-2.405-.612-2.405-2.418 0-1.002.73-1.669 1.913-1.669.466 0 .918.064 1.3.201H6.32zm1.917.743V.96h3.53v.894l-1.94 4.588h-1.2l2.033-4.637H8.237z"/>
	</g>
	<g id="label-S8">
		<path class="S8f" d="M3.775 7.497h7.476a3.749 3.749 0 0 0 0-7.497H3.775a3.749 3.749 0 0 0 0 7.497z"/>
		<path fill="#FFF" d="M6.32 1.06l-.099.894a2.854 2.854 0 0 0-1.115-.233c-.364 0-.848.175-.848.711 0 .993 2.389.6 2.389 2.432 0 1.02-.842 1.66-2.04 1.66-.608 0-.873-.073-1.406-.198l.099-.984c.382.205.81.31 1.244.308.407 0 .973-.21.973-.701 0-1.037-2.406-.612-2.406-2.418 0-1.002.734-1.669 1.916-1.669.466 0 .915.067 1.296.198H6.32z"/>
		<path fill="#FFF" d="M9.961 4.037c-.408.21-.702.46-.702.92 0 .501.358.775.845.775.413 0 .763-.274.763-.728 0-.55-.457-.807-.906-.967zm.198-.871c.335-.149.612-.449.612-.786 0-.408-.254-.69-.71-.69-.35 0-.74.215-.74.658 0 .469.465.678.838.818zm.749.335c.728.344 1.057.83 1.057 1.456 0 1.034-.798 1.596-1.864 1.596-1.124 0-1.951-.495-1.951-1.514 0-.64.352-1.113 1.01-1.427-.542-.262-.906-.72-.906-1.296 0-.752.682-1.43 1.838-1.43 1.066 0 1.748.51 1.748 1.31a1.404 1.404 0 0 1-.932 1.305z"/>
	</g>
	<g id="label-S9">
		<path class="S9f" d="M3.775 7.497h7.476a3.749 3.749 0 0 0 0-7.497H3.775a3.749 3.749 0 0 0 0 7.497z"/>
		<path fill="#FFF" d="M6.323 1.063l-.099.888a2.825 2.825 0 0 0-1.115-.233c-.367 0-.85.175-.85.711 0 .993 2.388.6 2.388 2.43 0 1.019-.84 1.665-2.04 1.665-.605 0-.873-.075-1.406-.204l.099-.984a2.6 2.6 0 0 0 1.244.314c.407 0 .975-.21.975-.704 0-1.034-2.405-.612-2.405-2.412 0-1.005.73-1.672 1.913-1.672.466 0 .918.064 1.3.201h-.004z"/>
		<path fill="#FFF" d="M10.086 3.676c.516 0 .731-.484.731-1.028 0-.507-.224-.98-.766-.98-.506 0-.74.505-.74.997 0 .527.234 1.01.775 1.01zM8.514 6.332l.14-.874c.298.145.626.22.958.222.958 0 1.264-.903 1.29-1.696a1.29 1.29 0 0 1-1.084.516c-1.022 0-1.587-.658-1.587-1.669 0-1.18.57-1.966 1.82-1.966 1.515 0 1.859 1.252 1.859 2.54 0 1.488-.484 3.145-2.249 3.145a2.77 2.77 0 0 1-1.147-.22v.002z"/>
	</g>
	<g id="label-S25">
		<path class="S25f" d="M3.775 7.497h7.476a3.749 3.749 0 0 0 0-7.497H3.775a3.749 3.749 0 0 0 0 7.497z"/>
		<path fill="#FFF" d="M3.763 1.238c.344 0 .728.058 1.107.18l-.023.778a2.243 2.243 0 0 0-.932-.224c-.432 0-.726.233-.726.64 0 .889 1.94.68 1.94 2.235 0 .844-.667 1.537-1.739 1.537a3 3 0 0 1-1.147-.218l.046-.853c.314.174.667.266 1.026.268.474 0 .774-.26.774-.659 0-1.028-1.922-.652-1.922-2.248 0-.83.615-1.436 1.596-1.436z"/>
		<path fill="#FFF" d="M7.427 5.534h1.864v.798H6.42v-.824c1.165-1.165 1.806-2.033 1.806-2.785 0-.434-.291-.699-.664-.699a1.788 1.788 0 0 0-.958.297l-.1-.8c.382-.193.866-.283 1.274-.283.95 0 1.433.507 1.433 1.31 0 1.294-1.142 2.345-1.783 2.983v.003zm5.645-.903c0 1.005-.74 1.733-1.797 1.733a2.67 2.67 0 0 1-1.098-.218l.058-.787c.279.14.585.218.897.227.583 0 .967-.36.967-.935 0-.535-.393-.897-1.04-.897a2.6 2.6 0 0 0-.792.129V1.29h2.557v.778h-1.718v1.028c.164-.037.332-.053.5-.05.875 0 1.466.636 1.466 1.588v-.003z"/>
	</g>
	<g id="label-S41">
		<path class="S41f" d="M3.756 7.512h7.488a3.756 3.756 0 1 0 0-7.512H3.756a3.756 3.756 0 1 0 0 7.512z"/>
		<path fill="#FFF" d="M5.127 4.745c0 .846-.668 1.541-1.745 1.541-.367 0-.726-.053-1.152-.219l.05-.855a2.13 2.13 0 0 0 1.026.271c.479 0 .777-.262.777-.662 0-1.027-1.926-.654-1.926-2.25 0-.829.615-1.439 1.599-1.439.344 0 .73.059 1.112.184l-.024.776a2.262 2.262 0 0 0-.936-.224c-.435 0-.727.233-.727.642 0 .89 1.946.68 1.946 2.235zm7.305 1.488h-.972V2.305l-.648.663-.467-.689 1.284-1.068h.8v5.025l.003-.003z"/>
		<path fill="#FFF" d="M8.224 4.494v-2.34l-1.235 2.34h1.235zm1.4.695h-.571v1.044h-.861V5.19H6.274v-.88l1.737-3.102H9.05v3.286h.575v.695z"/>
	</g>
	<g id="label-S42">
		<path class="S42f" d="M3.756 7.512h7.485a3.756 3.756 0 1 0 0-7.512H3.756a3.756 3.756 0 1 0 0 7.512z"/>
		<path fill="#FFF" d="M5.125 4.745c0 .846-.666 1.541-1.743 1.541a3.006 3.006 0 0 1-1.152-.219l.05-.855a2.12 2.12 0 0 0 1.024.271c.478 0 .779-.262.779-.662 0-1.027-1.926-.654-1.926-2.25 0-.829.612-1.439 1.599-1.439.344 0 .726.059 1.109.184l-.024.776a2.253 2.253 0 0 0-.933-.224c-.438 0-.727.233-.727.642 0 .89 1.944.68 1.944 2.235z"/>
		<path fill="#FFF" d="M13.039 6.233h-2.88v-.825c1.167-1.165 1.809-2.034 1.809-2.787 0-.438-.292-.7-.665-.7a1.772 1.772 0 0 0-.964.3l-.096-.806a3.02 3.02 0 0 1 1.278-.283c.955 0 1.44.511 1.44 1.314 0 1.295-1.148 2.349-1.79 2.985h1.87v.802h-.002zM8.224 4.494v-2.34l-1.238 2.34h1.238zm1.4.695h-.577v1.044h-.861V5.19H6.274v-.88l1.737-3.102h1.036v3.286h.575v.695h.003z"/>
	</g>
	<g id="label-S45">
		<path class="S45f" d="M3.775 7.497a3.749 3.749 0 0 1 0-7.497h7.474a3.749 3.749 0 0 1 0 7.497H3.775z"/>
		<path fill="#FFF" d="M13.139 4.622c0 1.002-.74 1.73-1.797 1.73a2.67 2.67 0 0 1-1.098-.218l.058-.786c.28.14.587.218.9.227.582 0 .964-.361.964-.935 0-.536-.39-.897-1.04-.897a2.55 2.55 0 0 0-.79.128V1.279h2.555v.777h-1.718v1.031a2.13 2.13 0 0 1 .504-.05c.873 0 1.462.636 1.462 1.588v-.003zm-7.998.193c0 .844-.667 1.537-1.742 1.537-.364 0-.725-.05-1.148-.218l.05-.85c.314.173.667.264 1.025.265.475 0 .772-.26.772-.662 0-1.025-1.922-.65-1.922-2.242 0-.83.617-1.442 1.602-1.442.338 0 .722.058 1.106.183l-.029.778a2.257 2.257 0 0 0-.929-.224c-.437 0-.725.233-.725.64 0 .889 1.94.682 1.94 2.235zm4.485.442h-.574v1.046h-.856V5.257H6.291v-.876l1.73-3.102h1.031v3.285h.574v.693zm-1.398-.693V2.222L6.996 4.564h1.232z"/>
	</g>
	<g id="label-S46">
		<path class="S46f" d="M3.775 7.497h7.476a3.749 3.749 0 0 0 0-7.497H3.775a3.749 3.749 0 0 0 0 7.497z"/>
		<path fill="#FFF" d="M5.161 4.777c0 .844-.664 1.535-1.742 1.535a3.01 3.01 0 0 1-1.147-.216l.05-.853c.312.174.664.266 1.022.268.477 0 .777-.262.777-.661 0-1.026-1.925-.65-1.925-2.243 0-.827.618-1.439 1.602-1.439.34 0 .722.058 1.107.183l-.03.778a2.237 2.237 0 0 0-.931-.224c-.431 0-.726.233-.726.64 0 .886 1.943.676 1.943 2.229v.003z"/>
		<path fill="#FFF" d="M8.254 4.526V2.187L7.02 4.527h1.234zm1.398.693H9.08v1.043h-.857V5.22h-1.91v-.88l1.733-3.098H9.08v3.282h.573v.696zm3.69-.646c0 1.077-.698 1.756-1.59 1.756-1.069 0-1.581-.72-1.581-2.138 0-2.146.83-3.014 2.024-3.014.34 0 .606.052.891.125l-.058.778a1.98 1.98 0 0 0-.743-.152c-.71 0-1.068.626-1.135 1.427.168-.2.451-.308.853-.308.839 0 1.34.553 1.34 1.529v-.003zm-.943.087c0-.524-.248-.903-.632-.903-.355 0-.606.367-.606.935 0 .583.242.903.623.903.382 0 .615-.367.615-.935z"/>
	</g>
	<g id="label-S47">
		<path class="S47f" d="M3.775 7.497h7.476a3.749 3.749 0 0 0 0-7.497H3.775a3.749 3.749 0 0 0 0 7.497z"/>
		<path fill="#FFF" d="M5.135 4.736c0 .845-.67 1.538-1.745 1.538a3.03 3.03 0 0 1-1.15-.219l.052-.85a2.14 2.14 0 0 0 1.025.268c.475 0 .775-.262.775-.661 0-1.029-1.925-.65-1.925-2.246 0-.827.617-1.436 1.602-1.436.338 0 .722.058 1.107.184l-.03.774a2.249 2.249 0 0 0-.931-.224c-.432 0-.723.233-.723.64 0 .89 1.943.68 1.943 2.232zm7.954-2.688L11.581 6.22h-1.049l1.602-4.24h-1.94v-.775h2.892v.842h.003z"/>
		<path fill="#FFF" d="M9.623 5.179H9.05V6.22h-.86V5.18H6.283v-.877l1.733-3.096H9.05v3.28h.573v.693zm-1.398-.694V2.15L6.99 4.485h1.235z"/>
	</g>
	<g id="label-S75">
		<path class="S75f" d="M3.775 7.497h7.476a3.749 3.749 0 0 0 0-7.497H3.775a3.749 3.749 0 0 0 0 7.497z"/>
		<path fill="#FFF" d="M3.708 1.174c.34 0 .725.058 1.107.18l-.027.778a2.237 2.237 0 0 0-.932-.224c-.43 0-.722.233-.722.64 0 .889 1.94.68 1.94 2.235 0 .844-.667 1.537-1.739 1.537-.367 0-.728-.052-1.15-.218l.049-.85c.314.173.666.265 1.025.267.472 0 .775-.262.775-.66 0-1.029-1.922-.653-1.922-2.25 0-.826.611-1.435 1.596-1.435zm2.706.073H9.29v.844l-1.5 4.177H6.734L8.35 2.024H6.41v-.777h.004zm3.853 0h2.557v.777h-1.718v1.028a2.03 2.03 0 0 1 .5-.05c.875 0 1.469.636 1.469 1.588 0 1.002-.743 1.73-1.8 1.73a2.67 2.67 0 0 1-1.098-.218l.058-.786c.279.14.585.218.897.227.583 0 .967-.361.967-.935 0-.536-.39-.897-1.04-.897-.269 0-.536.043-.792.128V1.247z"/>
	</g>
	<g id="label-S85">
		<path class="S85f" d="M3.775 7.497a3.749 3.749 0 0 1 0-7.497h7.474a3.749 3.749 0 0 1 0 7.497H3.775z"/>
		<path fill="#FFF" d="M13.139 4.622c0 1.002-.74 1.73-1.797 1.73a2.67 2.67 0 0 1-1.098-.218l.058-.786c.28.14.587.218.9.227.582 0 .964-.361.964-.935 0-.536-.39-.897-1.04-.897a2.55 2.55 0 0 0-.79.128V1.279h2.555v.777h-1.718v1.031a2.13 2.13 0 0 1 .504-.05c.873 0 1.462.636 1.462 1.588v-.003zm-7.998.193c0 .844-.667 1.537-1.742 1.537-.364 0-.725-.05-1.148-.218l.05-.85c.314.173.667.264 1.025.265.475 0 .772-.26.772-.662 0-1.025-1.922-.65-1.922-2.242 0-.83.617-1.442 1.602-1.442.338 0 .722.058 1.106.183l-.029.778a2.257 2.257 0 0 0-.929-.224c-.437 0-.725.233-.725.64 0 .889 1.94.682 1.94 2.235zm2.624-.755c-.376.19-.64.417-.64.836 0 .457.325.708.768.708.379 0 .7-.25.7-.661 0-.504-.42-.737-.828-.883zm.18-.795c.304-.134.554-.408.554-.714 0-.372-.227-.632-.64-.632-.321 0-.68.198-.68.6 0 .429.426.618.767.746zm.682.306c.661.314.964.757.964 1.325 0 .947-.728 1.456-1.698 1.456-1.025 0-1.776-.448-1.776-1.377 0-.589.32-1.014.917-1.305-.495-.236-.827-.655-.827-1.18 0-.687.623-1.305 1.677-1.305.97 0 1.594.466 1.594 1.198 0 .541-.364 1.019-.85 1.188z"/>
	</g>
	<g id="label-U55">
		<path class="U55f" d="M0 0h13.507v7.99H0z"/>
		<path fill="#FFF" d="M12.688 1.023v.875h-2.015l-.016 1.246c.155-.043.314-.064.475-.062.766 0 1.687.39 1.687 1.907 0 1.085-.66 1.966-2.047 1.966a5.19 5.19 0 0 1-1.206-.149l.01-1.06c.33.191.703.296 1.084.304.521 0 1.083-.28 1.083-1.036 0-.766-.57-1.014-1.182-1.014a2.5 2.5 0 0 0-.92.167l.058-3.144h2.99zm-3.81 0v.875h-2.01L6.85 3.144a1.65 1.65 0 0 1 .47-.062c.767 0 1.69.39 1.69 1.907 0 1.085-.66 1.966-2.046 1.966a5.178 5.178 0 0 1-1.206-.149l.006-1.06c.33.191.704.296 1.086.304.524 0 1.085-.28 1.085-1.036C7.935 4.248 7.365 4 6.753 4a2.5 2.5 0 0 0-.92.167l.058-3.144h2.987zM.775 4.757V1.023H1.86v3.38c0 1.008.14 1.659.98 1.659.831 0 .958-.651.958-1.659v-3.38h1.107v3.734c0 1.569-.66 2.201-2.065 2.201-1.395 0-2.068-.632-2.068-2.201h.003z"/>
	</g>
	<g id="label-U9">
		<path class="U9f" d="M0 0h13.504v7.99H0z"/>
		<path fill="#FFF" d="M1.882 4.757V1.023h1.17v3.38c0 1.008.319 1.659 1.22 1.659.894 0 1.204-.651 1.204-1.659v-3.38h1.19v3.734c0 1.569-.883 2.201-2.387 2.201-1.5 0-2.394-.632-2.394-2.201h-.003z"/>
		<path fill="#FFF" d="M10.053 3.92c.552 0 .784-.518.784-1.095 0-.546-.242-1.045-.821-1.045-.543 0-.791.536-.791 1.06 0 .562.248 1.08.828 1.08zm-1.68 2.833l.151-.936c.319.156.668.238 1.023.242 1.024 0 1.355-.964 1.383-1.81a1.384 1.384 0 0 1-1.16.551c-1.097 0-1.705-.7-1.705-1.78 0-1.256.617-2.093 1.954-2.093 1.624 0 1.99 1.333 1.99 2.707 0 1.585-.518 3.349-2.409 3.349-.434 0-.828-.062-1.228-.23z"/>
	</g>
	<g id="label-U8">
		<path class="U8f" d="M0 0h13.504v7.99H0z"/>
		<path fill="#FFF" d="M1.873 4.757V1.023h1.166v3.38c0 1.008.32 1.656 1.221 1.656.89 0 1.204-.651 1.204-1.656v-3.38H6.65v3.734c0 1.569-.884 2.201-2.39 2.201-1.498 0-2.391-.632-2.391-2.201h.003z"/>
		<path fill="#FFF" d="M9.91 4.3c-.437.224-.75.49-.75.98 0 .537.384.832.899.832.45 0 .822-.295.822-.776 0-.589-.49-.868-.97-1.035zm.214-.923c.357-.161.651-.48.651-.837 0-.438-.266-.742-.76-.742-.372 0-.793.233-.793.704 0 .5.499.723.899.875h.003zm.803.356c.775.366 1.132.881 1.132 1.55 0 1.105-.856 1.7-1.997 1.7-1.206 0-2.087-.527-2.087-1.612 0-.683.372-1.185 1.08-1.523-.58-.279-.974-.766-.974-1.38 0-.803.731-1.525 1.972-1.525 1.14 0 1.873.545 1.873 1.398a1.495 1.495 0 0 1-.999 1.392z"/>
	</g>
	<g id="label-U7">
		<path class="U7f" d="M0 0h13.504v7.99H0z"/>
		<path fill="#FFF" d="M8.124 1.941v-.915h3.767v.962l-2.093 4.88H8.54l2.16-4.927H8.125zM1.873 4.757v-3.73h1.166V4.4c0 1.008.32 1.659 1.221 1.659.89 0 1.204-.651 1.204-1.659V1.026H6.65v3.73c0 1.57-.884 2.202-2.39 2.202-1.501 0-2.391-.632-2.391-2.201h.003z"/>
	</g>
	<g id="label-U6">
		<path class="U6f" d="M0 0h13.504v7.99H0z"/>
		<path fill="#FFF" d="M1.873 4.757v-3.73h1.169V4.4c0 1.005.322 1.659 1.222 1.659.893 0 1.206-.651 1.206-1.659V1.023h1.184v3.73c0 1.57-.883 2.202-2.387 2.202-1.501 0-2.394-.633-2.394-2.202v.004z"/>
		<path fill="#FFF" d="M10.053 3.963c-.57 0-.794.527-.794 1.017 0 .632.232 1.132.822 1.132.542 0 .769-.537.769-1.055 0-.567-.227-1.094-.797-1.094zM11.72 1.14l-.133.952a2.316 2.316 0 0 0-1.036-.239c-1.017 0-1.346.952-1.383 1.817.26-.382.7-.602 1.163-.58 1.104 0 1.711.686 1.711 1.79 0 1.23-.679 2.102-2.043 2.102-1.544 0-1.953-1.194-1.953-2.735 0-1.56.555-3.302 2.452-3.302a3.5 3.5 0 0 1 1.222.195z"/>
	</g>
	<g id="label-U5">
		<path class="U5f" d="M0 0h13.504v7.99H0z"/>
		<path fill="#FFF" d="M11.802 1.023v.875H9.557l-.019 1.246c.124-.034.291-.062.515-.062.837 0 1.891.39 1.891 1.907 0 1.085-.766 1.966-2.282 1.966a6.59 6.59 0 0 1-1.364-.149l.006-1.06c.383.192.805.296 1.234.304.57 0 1.228-.28 1.228-1.036 0-.766-.667-1.014-1.337-1.014a3.225 3.225 0 0 0-1.054.167l.068-3.144h3.362-.003zm-9.93 3.734V1.023H3.04v3.38c0 1.008.322 1.659 1.221 1.659.893 0 1.207-.651 1.207-1.659v-3.38H6.65v3.734c0 1.569-.88 2.201-2.387 2.201-1.501 0-2.394-.632-2.394-2.201h.003z"/>
	</g>
	<g id="label-U4">
		<path class="U4f" d="M0 0h13.507v7.99H0z"/>
		<path fill="#000" d="M1.873 4.757v-3.73h1.169V4.4c0 1.008.322 1.659 1.222 1.659.893 0 1.206-.651 1.206-1.659V1.026h1.184v3.73c0 1.57-.883 2.202-2.39 2.202-1.498 0-2.388-.632-2.388-2.201h-.003z"/>
		<path fill="#000" d="M8.884 4.794h1.488V2.233L8.884 4.797v-.003zm-1.039.88v-.96l2.202-3.69h1.435v3.77h.766v.88h-.769v1.194h-1.104V5.674H7.842h.003z"/>
	</g>
	<g id="label-U3">
		<path class="U3f" d="M0 0h13.504v7.99H0z"/>
		<path fill="#FFF" d="M1.873 4.757v-3.73h1.169V4.4c0 1.008.322 1.659 1.225 1.659.89 0 1.203-.651 1.203-1.659V1.026h1.184v3.73c0 1.57-.88 2.202-2.387 2.202-1.501 0-2.394-.632-2.394-2.201z"/>
		<path fill="#FEFEFE" d="M9.33 3.46h-.36v.831h.416c.744 0 1.135.289 1.135.856 0 .524-.443.909-1.06.909a2.803 2.803 0 0 1-1.176-.282l-.059.94c.433.168.894.25 1.358.241 1.281 0 2.072-.67 2.072-1.736 0-.466-.155-.86-.453-1.104-.183-.152-.332-.217-.716-.31.227-.054.442-.151.632-.286.308-.238.48-.612.46-1.001 0-.949-.701-1.547-1.808-1.547-.428 0-.825.068-1.402.245l.074.914a2.276 2.276 0 0 1 1.107-.332c.543 0 .928.33.928.816 0 .555-.41.85-1.15.85l.002-.004z"/>
	</g>
	<g id="label-U2">
		<path class="U2f" d="M0 0h13.504v7.99H0z"/>
		<path fill="#FFF" d="M11.944 6.868H8.031v-.97c.48-.438 2.459-2.103 2.459-3.244 0-.552-.3-.818-.871-.818-.488.02-.959.187-1.35.48l-.108-.961a3.504 3.504 0 0 1 1.75-.428c1.177 0 1.847.623 1.847 1.64 0 1.29-1.364 2.45-2.32 3.35h2.506v.951zM1.873 4.757v-3.73h1.169V4.4c0 1.008.322 1.659 1.225 1.659.89 0 1.203-.651 1.203-1.659V1.026h1.184v3.73c0 1.57-.88 2.202-2.387 2.202-1.501 0-2.394-.632-2.394-2.201z"/>
	</g>
	<g id="label-U1">
		<path class="U1f" d="M0 0h13.504v7.99H0z"/>
		<path fill="#FFF" d="M8.357 2.388l1.714-1.365h1.042v5.842H9.935V2.37l-.961.781-.617-.762zM1.873 4.757V1.023h1.166V4.4c0 1.005.32 1.656 1.221 1.656.89 0 1.204-.651 1.204-1.656V1.02H6.65v3.737c0 1.565-.884 2.198-2.39 2.198-1.501 0-2.391-.633-2.391-2.202l.003.004z"/>
	</g>
</defs>

<g fill="none" transform="translate(20 7)">

	<path id="line-S1" class="S1" d="M364.905.22l181.23 181.355c.979.942 1.984 2.65.574 4.086l-23.486 23.488s-.953.987-1.275 1.776c-.336.822-.326 2.253-.326 2.253v80.866c0 1.83-.13 2.916-1.643 4.43l-38.284 38.15c-1.924 1.923-2.04 2.828-1.99 5.743V461.36c0 2.74.179 3.644-2.003 5.826L288.412 655.49s-1.044.96-1.862 1.298c-.797.328-2.174.394-2.174.394h-85.292s-1.434-.065-2.26-.412c-.812-.343-1.85-1.3-1.85-1.3l-28.98-28.982s-1.007-.955-1.805-1.285c-.807-.334-2.212-.364-2.212-.364l-28.36-.066c-3.195 0-5.482.135-7.96 2.607l-39.012 39.058"/>
	<path id="line-S2" class="S2" d="M521.938 746.552V630.768s-.03-1.474-.391-2.316c-.347-.81-1.337-1.824-1.337-1.824l-35.363-35.363c-2.029-2.029-2.201-3.723-2.201-6.667M728.187 8.608l-201.79 201.406s-.929 1.007-1.262 1.795c-.343.82-.399 2.247-.399 2.247l-.047 80.57c0 1.86-.392 3.795-2.522 5.924l-38.849 38.714c-.943.945-.691 1.818-.691 2.962l.019 242.312"/>
	<path id="line-S25" class="S2" d="M253 41l1.357-1.485 54.544 54.422s1.01 1.026 1.836 1.362c.804.326 2.203.314 2.203.314l154.114-.086s1.493.106 2.353.474c.773.33 1.792 1.196 1.792 1.196l79.826 79.829c4.281 4.29 1.149 7.688-2.025 10.974M295.716 727.179l.005-2.44h47.31s1.382-.081 2.183-.41c.82-.336 1.882-1.278 1.882-1.278l133.663-133.982c1.542-1.555 1.907-2.46 1.887-4.531l-.02-242.312c0-1.144-.251-2.017.692-2.962l38.849-38.714c2.13-2.13 2.522-4.064 2.522-5.923l.048-80.571s.055-1.426.399-2.247c.332-.788 1.26-1.795 1.26-1.795L549 188"/>
	<path id="line-S3" class="S3" d="M763.117 401.489l29.795.009c2.996 0 5.047.462 7.026 2.423 0 0 32.878 32.996 35.552 35.67 1.555 1.555 3.068 1.915 4.812 1.915l60.854-.058c3.971 0 6.198.8 8.74 3.23l111.594 111.595"/>
	<path id="line-S5" class="S5" d="M31.909 267.11c5.515-.012 6.238.293 7.975 2.029l83.852 83.686 29.372 29.372c2.117 2.117 4.453 2.882 7.519 2.882l173.262-.008c3.08 0 4.316.169 6.182-1.697l73.084-73.427c4.276-4.275 6.342-4.87 11.863-4.87l166.406.007c4.633 0 7.024.182 10.733 3.89l85.12 85.075c1.653 1.653 3.45 1.444 5.368 1.444h96.465c3.043 0 4.107-.038 5.66-1.591l41.949-41.85c2.636-2.634 3.996-3.274 8.19-3.274l219.768-.08s1.476-.127 2.319-.507c.946-.426 2.108-1.623 2.108-1.623l24.306-24.62s.936-1.033 1.258-1.841c.326-.814.356-2.22.356-2.22l-.074-95.28"/>
	<path id="line-S7" class="S7" d="M968.234 196.044l-83.206 83.281c-2.13 2.131-2.76 3.64-2.76 6.777v57.846c0 4.576-1.3 7.758-8.315 7.758l-28.943-.004c-2.768 0-3.84.14-5.977 2.275l-41.982 41.981c-2.254 2.245-4.139 2.537-7.272 2.537l-97.265.018c-3.16 0-5.274-.237-7.3-2.263l-85.023-85.07c-2.64-2.64-4.48-3.253-8.607-3.253l-167.927.015c-2.41 0-4.666.787-6.089 2.21l-76.402 76.207s-1.013 1.072-1.855 1.416c-.755.31-2.067.32-2.067.32H193.602c-3.792.017-4.962.091-7.456 2.585l-81.409 81.36c-2.487 2.487-2.865 5.685-2.865 8.916l.057 161.981c0 3.558-.83 4.788-3.165 7.123L57.79 690.88c-3.343 3.348-3.985 3.946-8.344 3.946l-48.899-.115"/>
	<path id="line-S75" class="S7" d="M226 388.094h111.244s1.312-.01 2.067-.319c.842-.344 1.855-1.416 1.855-1.416l76.402-76.207c1.423-1.423 3.678-2.21 6.09-2.21l167.926-.015c4.126 0 5.966.612 8.607 3.253l85.023 85.07c2.026 2.026 4.14 2.263 7.3 2.263l97.265-.018c3.133 0 5.018-.292 7.272-2.537l41.982-41.98c2.136-2.137 3.21-2.276 5.977-2.276l28.943.004c7.015 0 8.314-3.182 8.314-7.758v-57.846l-.296.046c-.42-1.933-1.321-3.108-2.84-4.627L771.383 173.773l2.11-2.093"/>
	<path id="line-S85" class="S8" d="M551.89 189.1c1.908-1.862 1.425-5.076-.708-7.066L428.529 59.535M552 189l-8.99 9.075c-2.935 2.934-1.816 6.346.093 8.257l14.593 14.552c1.929 1.93 3.977 1.765 5.863 1.765l138.039.055c4.987 0 7.49.566 10.086 3.163l52.986 53.135s.99 1.015 1.328 1.829c.336.807.362 2.212.362 2.212l-.131 180.056s.113 1.487.492 2.337c.346.772 1.248 1.774 1.248 1.774L912 612"/>
	<path id="line-S8" class="S8" d="M389.33 20.404l16.178 16.17c.997.997 1.31 1.116 2.312 1.116h5.812c.91 0 1.68-.1 2.582-.998l3.344-3.35c1.259-1.26 2.009-1.354 3.253-1.354l195.615-.098s1.395.128 2.209.462c.814.334 1.895 1.22 1.895 1.22l36.05 36.016c5.08 5.079 4.813 8.08.92 11.973L543.01 198.075c-2.935 2.934-1.816 6.346.093 8.257l14.593 14.552c1.929 1.93 3.977 1.765 5.863 1.765l138.039.055c4.987 0 7.49.566 10.086 3.163l52.986 53.135s.99 1.015 1.328 1.829c.336.807.362 2.212.362 2.212l-.131 180.056s.113 1.487.492 2.337c.346.772 1.248 1.774 1.248 1.774L951.05 650.232"/>
	<path id="line-S9" class="S9" d="M599.223 146.15l-53.987 54.13c-1.257 1.224-1.165 2.882.354 4.4l13.416 13.469c1.444 1.443 2.004 1.596 3.867 1.596h138.04c5.578.003 8.335-.313 12.8 4.152l52.16 52.25c1.525 1.523 3.248 3.076 3.248 7.09V460.33c0 2.658.543 4.249 2.527 6.233l113.487 112.889s.918 1.045 1.203 1.755c.327.81.414 2.296.414 2.296l.113 44.08s-.078 1.413-.421 2.227c-.332.78-1.24 1.786-1.24 1.786l-96.785 96.817"/>

	<path id="line-S41" class="S41" d="M707.813 230.49l50.49 50.299s.889.993 1.225 1.758c.368.84.464 2.303.464 2.303l-.048 176.787s-.06 1.38-.387 2.18c-.328.798-1.256 1.82-1.256 1.82l-49.57 49.688s-1.033 1.024-1.866 1.368c-.803.33-2.197.352-2.197.352l-429.221.067s-1.368-.09-2.16-.42c-.82-.341-1.875-1.298-1.875-1.298l-40.458-40.573s-.912-1.01-1.236-1.796c-.343-.833-.385-2.278-.385-2.278l.132-191.217s.16-1.372.494-2.176c.345-.828 1.244-1.934 1.244-1.934l44.941-45.07s1.06-.905 1.868-1.247c.805-.34 2.195-.47 2.195-.47l420.282-.036c3.753 0 5.6.17 7.324 1.894z"/>
	<path id="line-S42" class="S42" d="M709.697 228.203l51.555 51.516s.92 1.017 1.254 1.805c.343.812.423 2.217.423 2.217l.015 179.072s.055 1.409-.43 2.483c-.366.808-1.75 2.134-1.75 2.134l-50.82 50.935s-1 .943-1.788 1.279c-.785.333-2.149.404-2.149.404l-431.934.067s-1.388-.102-2.19-.442c-.739-.314-1.713-1.141-1.713-1.141l-42.108-42.225s-.834-.97-1.153-1.708c-.364-.842-.456-2.31-.456-2.31V278.233s.094-1.353.413-2.142c.334-.825 1.266-1.899 1.266-1.899l46.8-46.848s1.08-.89 1.888-1.236c.832-.355 2.261-.516 2.261-.516l421.36.062c4.154 0 6.988.282 9.256 2.548z"/>
	<path id="line-S45" class="S45" d="M338 523.12l479.186-.375s1.349.05 2.128.376c.872.364 1.938 1.459 1.938 1.459L879 582m-92.7 144.152l95.284-95.405s.934-.9 1.283-1.628c.427-.893.444-2.5.444-2.5l.189-37.068s-.01-1.153-.224-1.846c-.3-.968-1.21-2.211-1.21-2.211L879 582"/>
	<path id="line-S46" class="S46" d="M223.452 306.437v167.26s.115 1.387.45 2.194c.324.78 1.185 1.817 1.185 1.817l43.854 43.853s.942.746 1.637 1.049c.827.359 2.256.507 2.256.507l544.352-.372s1.349.05 2.128.376c.872.364 1.938 1.459 1.938 1.459l153.037 153.287"/>
	<path id="line-S47" class="S47" d="M636 523.12l181.186-.375s1.349.05 2.128.376c.872.364 1.938 1.459 1.938 1.459L841 544m65.559 3.855l-.037 2.415h-57.154c-1.76 0-2.253.206-4.102-1.643L841 544"/>

	<path id="line-U1" class="S8" d="M682.19 392.293l-21.448 21.65s-.96 1.045-1.76 1.41c-.848.383-2.357.383-2.357.383l-335.168.011-.007-2.89"/>
	<path id="line-U3" class="U3" d="M176.622 617.866l-1.85-1.836 194.536-194.998c2.007-2.008 3.64-2.204 6.18-2.204l40.152-.023"/>
	<path id="line-U2" class="U2" d="M117.247 295.916l2.338-2.345 57.573 57.651s1.027 1.04 1.864 1.385c.796.33 2.18.347 2.18.347l127.876.241s1.355.092 2.142.415c.818.335 1.877 1.27 1.877 1.27l65.52 65.402c.987.972 1.993 1.522 3.719 1.521l59.963.04c1.969 0 4.407.101 5.355-1.126l14.817-14.872c1.227-1.339 1.505-1.98 1.505-3.933l-.026-26.994c0-1.82 1.27-3.06 3.092-3.06l136.003-.076s1.566.167 2.455-.195c.893-.363 1.898-1.58 1.898-1.58l16.455-16.406s.876-1.095 1.2-1.914c.333-.839.438-2.273.438-2.273l.097-23.157s-.111-1.459-.477-2.298c-.3-.69-1.06-1.617-1.06-1.617l-22.777-22.778s-.944-1.028-1.281-1.83c-.354-.835-.418-2.286-.418-2.286l.124-149.148"/>
	<path id="line-U4" class="U4" d="M415.149 424.798h-17.821c-1.084 0-2.206.94-2.206 2.022v92.857"/>
	<path id="line-U5" class="U5" d="M623.38 321.445c2.134-2.133 2.61-2.323 4.74-2.323l39.65.037s1.457.065 2.293.427c.756.328 1.732 1.216 1.732 1.216l47.75 47.65s1.022.915 1.809 1.26c.836.37 2.29.485 2.29.485l136.739.019s1.36.056 2.156.363c.799.307 1.847 1.184 1.847 1.184l20.149 20.239s1.002.838 1.756 1.163c.848.365 2.317.484 2.317.484h2.787s1.482-.06 2.328-.428c.77-.338 1.757-1.26 1.757-1.26l134.47-134.473 2.13 2.12"/>
	<path id="line-U55" class="U5" d="M480.804 345.794c-3.456.011-4.102.452-6.56-2.005l-19.563-19.564c-2.11-2.109-2.597-2.91-2.597-5.183V307"/>
	<path id="line-U6" class="S7" d="M294.747 85.488l243.837 244.11c2.115 2.114 2.764 3.124 2.764 5.72l-.01 250.932 2.739-.005"/>
	<path id="line-U7" class="U7" d="M740.55 680.008l-53.511-53.37c-1.6-1.6-1.992-2.854-1.992-4.279l-.115-132.864s-.118-1.335-.442-2.113c-.333-.81-1.242-1.873-1.242-1.873l-27.296-27.297s-1.053-.967-1.88-1.304c-.777-.318-2.12-.39-2.12-.39l-109.141.034c-3.375 0-4.61-.753-4.61-4.088v-12.793c0-2.966-.076-4.044-1.466-5.435l-12.496-12.496c-1.75-1.749-2.532-3.053-4.813-3.053h-23.808c-3.145 0-5.82 2.56-5.82 5.706v31.97c0 3.568-.093 4.99-2.03 6.926l-20.577 20.462s-1.05.993-1.882 1.333c-.772.315-2.104.372-2.104.372H316.082s-1.394.003-2.191-.33c-.806-.337-1.791-1.347-1.791-1.347l-30.914-30.689s-.935-1-1.273-1.786c-.372-.867-.406-2.385-.406-2.385V257.692s-.072-1.347-.388-2.13c-.316-.779-1.194-1.79-1.194-1.79l-27.327-27.328s-.982-.797-1.712-1.115c-.822-.357-2.241-.507-2.241-.507H77.654c-1.91 0-2.606.04-3.968 1.34L37.61 262.363"/>
	<path id="line-U8" class="U8" d="M636.188 519.668l.001-153.3s.026-1.274.3-2.022c.332-.899 1.385-2.028 1.385-2.028l7.034-7.11s1.298-1.335 1.29-3.69c-.007-2.57-1.695-3.95-1.695-3.95L399.427 102.541c-2.75-2.989-3.375-4.782-3.375-8.706l.001-8.909c.01-2.257.358-3.36 2.32-5.322l6.062-6.018c1.615-1.615 1.983-1.818 4.21-1.797h27.114"/>
	<path id="line-U9" class="U9" d="M338.199 605.627l.116-204.653s.058-1.495.433-2.348c.363-.826 1.38-1.856 1.38-1.856l43.729-43.747s.678-.885.949-1.534c.353-.842.446-2.299.446-2.299l-.12-127.87s.062-1.414.398-2.23c.322-.785 1.217-1.8 1.217-1.8l63.68-63.68"/>
</g>

<g fill="none">
	<use id="label-S1-a" xlink:href="#label-S1" transform="translate(365)"/>
	<use id="label-S1-b" xlink:href="#label-S1" transform="translate(113 672)"/>
	<use id="label-S2-a" xlink:href="#label-S2" transform="translate(752 7)"/>
	<use id="label-S2-b" xlink:href="#label-S2" transform="translate(539 757)"/>
	<use id="label-S3-a" xlink:href="#label-S3" transform="translate(1044 567)"/>
	<use id="label-S3-b" xlink:href="#label-S3" transform="translate(760 410)"/>
	<use id="label-S5-a" xlink:href="#label-S5" transform="translate(32 269)"/>
	<use id="label-S5-b" xlink:href="#label-S5" transform="translate(1105 219)"/>
	<use id="label-S7-a" xlink:href="#label-S7" transform="translate(0 699)"/>
	<use id="label-S7-b" xlink:href="#label-S7" transform="translate(990 194)"/>
	<use id="label-S8-a" xlink:href="#label-S8" transform="translate(411 18)"/>
	<use id="label-S8-b" xlink:href="#label-S8" transform="translate(975 653)"/>
	<use id="label-S9-a" xlink:href="#label-S9" transform="translate(625 149)"/>
	<use id="label-S9-b" xlink:href="#label-S9" transform="translate(810 739)"/>
	<use id="label-S25-a" xlink:href="#label-S25" transform="translate(255 38)"/>
	<use id="label-S25-b" xlink:href="#label-S25" transform="translate(297 728)"/>
	<use id="label-S41-a" xlink:href="#label-S41" transform="translate(594 513)"/>
	<use id="label-S41-b" xlink:href="#label-S41" transform="translate(493 239)"/>
	<use id="label-S42-a" xlink:href="#label-S42" transform="translate(594 534)"/>
	<use id="label-S42-b" xlink:href="#label-S42" transform="translate(493 222)"/>
	<use id="label-S45-a" xlink:href="#label-S45" transform="translate(793 739)"/>
	<use id="label-S45-b" xlink:href="#label-S45" transform="translate(340 533)"/>
	<use id="label-S46-a" xlink:href="#label-S46" transform="translate(254 309)"/>
	<use id="label-S46-b" xlink:href="#label-S46" transform="translate(997 686)"/>
	<use id="label-S47-a" xlink:href="#label-S47" transform="translate(930 554)"/>
	<use id="label-S47-b" xlink:href="#label-S47" transform="translate(640 536)"/>
	<use id="label-S75-a" xlink:href="#label-S75" transform="translate(774 171)"/>
	<use id="label-S75-b" xlink:href="#label-S75" transform="translate(226 398)"/>
	<use id="label-S85-a" xlink:href="#label-S85" transform="translate(451 57)"/>
	<use id="label-s85-b" xlink:href="#label-S85" transform="translate(840 554)"/>
	<use id="label-S85-c" xlink:href="#label-S85" transform="translate(935 611)"/>
	<use id="label-U55-a" xlink:href="#label-U55" transform="translate(464 299)"/>
	<use id="label-U55-b" xlink:href="#label-U55" transform="translate(507 349)"/>
	<use id="label-U9-a" xlink:href="#label-U9" transform="translate(473 149)"/>
	<use id="label-U9-b" xlink:href="#label-U9" transform="translate(358 619)"/>
	<use id="label-U8-a" xlink:href="#label-U8" transform="translate(463 67)"/>
	<use id="label-U8-b" xlink:href="#label-U8" transform="translate(658 536)"/>
	<use id="label-U7-a" xlink:href="#label-U7" transform="translate(39 259)"/>
	<use id="label-U7-b" xlink:href="#label-U7" transform="translate(764 691)"/>
	<use id="label-U6-a" xlink:href="#label-U6" transform="translate(296 85)"/>
	<use id="label-U6-b" xlink:href="#label-U6" transform="translate(555 598)"/>
	<use id="label-U5-a" xlink:href="#label-U5" transform="translate(618 337)"/>
	<use id="label-U5-b" xlink:href="#label-U5" transform="translate(1054 254)"/>
	<use id="label-U4-a" xlink:href="#label-U4" transform="translate(408 533)"/>
	<use id="label-U4-b" xlink:href="#label-U4" transform="translate(428 436)"/>
	<use id="label-U3-a" xlink:href="#label-U3" transform="translate(177 619)"/>
	<use id="label-U3-b" xlink:href="#label-U3" transform="translate(428 410)"/>
	<use id="label-U2-a" xlink:href="#label-U2" transform="translate(120 294)"/>
	<use id="label-U2-b" xlink:href="#label-U2" transform="translate(598 137)"/>
	<use id="label-U1-a" xlink:href="#label-U1" transform="translate(324 417)"/>
	<use id="label-U1-b" xlink:href="#label-U1" transform="translate(709 388)"/>
</g>

<g fill="none" transform="translate(41 13)">
	<path class="S8" d="M489 28.696v-3.067"/>
	<path class="S8" d="M555 28.676V25.61"/>
	<path class="S8" d="M436 28.854v-3.067"/>
	<path class="S5" d="M40.067 279.938l-2.168 2.169"/>
	<path class="S5" d="M62.938 307.02l-2.169 2.17"/>
	<path class="S5" d="M88.283 332.366l-2.17 2.169"/>
	<path class="S5" d="M109.652 353.735l-2.17 2.169"/>
	<path class="S5" d="M152 376.098v3.067"/>
	<path class="S47" d="M853 544.202v-3.067"/>
	<path stroke="#CD9C53" d="M939.346 653.913l-2.17 2.17"/>
	<path class="S2" d="M408 92.39v-2.837"/>
	<path class="S2" d="M316 92.616V89.55"/>
	<path class="S2" d="M260.064 56.248l-2.169 2.17"/>
	<path class="S2" d="M248.846 45.325l-2.17 2.17"/>
	<path class="S3" d="M804.463 419.098l-2.168 2.168"/>
	<path class="S3" d="M971.96 517.418l-2.167 2.17"/>
	<path class="S3" d="M933.762 479.26l-2.168 2.168"/>
	<path class="S3" d="M952.99 498.586l-2.17 2.17"/>
	<path class="S3" d="M785.938 400.873l-2.17 2.17"/>
	<path class="S3" d="M988.781 534.229l-2.168 2.169"/>
	<path class="S3" d="M895.764 441.153l-2.17 2.169"/>
	<path class="S3" d="M914.838 460.274l-2.17 2.169"/>
	<path class="S2" d="M474.967 591.817l-2.168 2.169"/>
	<path class="S2" d="M501.516 672h3.068"/>
	<path class="S2" d="M501.596 725h3.066"/>
	<path class="S2" d="M666.967 46.718l-2.17-2.169"/>
	<path class="S2" d="M678.3 35.563l-2.17-2.17"/>
	<path class="S2" d="M698.422 15.493l-2.17-2.168"/>
	<path class="S2" d="M688.594 25.37l-2.17-2.169"/>
	<path class="S2" d="M442.18 596.213l2.168 2.17"/>
	<path class="S2" d="M368.713 674.364l-2.169-2.17"/>
	<path class="U9" d="M407.101 173.754l-2.169-2.169"/>
	<path class="U9" d="M374.952 196.763l2.169 2.169"/>
	<path class="U9" d="M361 247h3.067"/>
	<path class="U9" d="M363.17 351.17l-2.17-2.169"/>
	<path class="U9" d="M320.615 462h-3.277"/>
	<path class="U9" d="M314.123 539h3.067"/>
	<path class="U8" d="M612.162 491h3.068"/>
	<path class="U8" d="M612.123 430h3.068"/>
	<path class="U8" d="M612.162 471h3.07"/>
	<path class="U8" d="M530.652 244.574l-2.17 2.169"/>
	<path class="U8" d="M518.309 231.819l-2.168 2.169"/>
	<path class="U8" d="M408.776 126.135l-2.17 2.17"/>
	<path class="U8" d="M399.206 116.852l-2.17 2.169"/>
	<path class="U8" d="M387.847 105.977l-2.169 2.169"/>
	<path class="U8" d="M377.814 68.655l2.169 2.169"/>
	<path class="U8" d="M612.494 372h3.066"/>
	<path class="U8" d="M418.734 136.116l-2.17 2.169"/>
	<path class="U7" d="M261.03 315h-3.066"/>
	<path class="U7" d="M706.826 656.973l-2.169 2.169"/>
	<path class="U7" d="M692.785 643.057l-2.17 2.169"/>
	<path class="U7" d="M676.62 626.754l-2.17 2.17"/>
	<path class="U7" d="M664.371 547h3.067"/>
	<path class="U7" d="M651.232 468.599l2.17-2.169"/>
	<path class="U7" d="M585 453.317v-3.067"/>
	<path class="U7" d="M546 453.427v-3.067"/>
	<path class="U7" d="M418 479.992v-3.067"/>
	<path class="U7" d="M395 479.27v3.068"/>
	<path class="U7" d="M301 482.41v-3.067"/>
	<path class="U7" d="M262.348 453.167l2.17-2.169"/>
	<path class="U7" d="M222 215.824v3.067"/>
	<path class="U7" d="M194 215.746v3.067"/>
	<path class="U7" d="M92 218.994v-3.067"/>
	<path class="U7" d="M44.896 232.237l-2.169-2.17"/>
	<path class="U7" d="M63 215.658v3.067"/>
	<path class="U7" d="M166 216.017v3.067"/>
	<path class="U7" d="M129 215.83v3.066"/>
	<path class="U7" d="M664.02 483h3.067"/>
	<path class="U5" d="M665.76 325.331l-2.168 2.17"/>
	<path class="U2" d="M234 344.37v3.067"/>
	<path class="U2" d="M274 346.835v3.067"/>
	<path class="U2" d="M118.713 308.113l-2.169 2.169"/>
	<path class="U2" d="M162 347.302v3.067"/>
	<path class="U2" d="M141.109 326.246l-2.17 2.168"/>
	<path class="U2" d="M303.015 355.551l-2.169 2.17"/>
	<path class="U2" d="M417 419.344v-3.067"/>
	<path class="U1" d="M647.719 404.221l-2.17-2.169"/>
	<path class="U1" d="M562 409.67v-3.067"/>
	<path class="U1" d="M410 406.694v3.067"/>
	<path class="U1" d="M630 412.67v-3.068"/>
	<path class="U3" d="M234.171 525.557l2.17 2.169"/>
	<path class="U3" d="M223.907 535.845l2.17 2.17"/>
	<path class="U3" d="M212.333 547.293l2.17 2.17"/>
	<path class="U3" d="M199.877 559.29l2.17 2.17"/>
	<path class="U3" d="M162.755 597.01l2.17 2.17"/>
	<path class="U3" d="M334.745 432.161l-2.17-2.168"/>
	<path class="S7" d="M113.237 431l2.409 1-2.41-1z"/>
	<path class="U3" d="M299.806 459l2.17 1-2.17-1z"/>
	<path class="S7" d="M520.294 351h-3.066 3.066z"/>
	<path class="U2" d="M539.363 366v-1 1z"/>
	<path class="S7" d="M.942 686v-1 1z"/>
	<path class="S5" d="M1071.02 242h3.068"/>
	<path class="S5" d="M1070.981 228h3.067"/>
	<path class="S5" d="M1070.981 216h3.067"/>
	<path class="U3" d="M187.125 572l2.168 1-2.168-1z"/>
	<path class="U3" d="M174.543 584.795l2.17 2.17"/>
	<path class="U7" d="M664.371 547h3.067"/>
	<path class="U7" d="M664.371 566h3.067"/>
	<path class="U7" d="M664.371 587h3.067"/>
	<path class="U7" d="M664.371 605h3.067"/>
	<path class="U7" d="M254.875 417.878l3.163.016"/>
	<path class="U9" d="M314.123 539h3.067"/>
	<path class="U9" d="M313.71 557h3.067-3.067z"/>
	<path class="U9" d="M313.71 575h3.067-3.067z"/>
	<path class="U8" d="M563.383 280l-2.168 1 2.168-1z"/>
	<path class="U8" d="M547.57 264.77l-2.168 2.17"/>
	<path class="U8" d="M612.205 392h3.067"/>
	<path class="U6" d="M520.053 471h3.068"/>
	<path class="U6" d="M520.193 489h3.067"/>
	<path class="U6" d="M523.299 567h-3.067"/>
	<path class="U6" d="M523.299 555h-3.067"/>
	<path class="U6" d="M523.29 541h-3.069"/>
	<path class="U6" d="M523.29 526h-3.069"/>
	<path class="U6" d="M523.294 391h-3.066"/>
	<path class="U6" d="M425.068 230.365l-2.17 2.169"/>
	<path class="U6" d="M441.132 246.831l-2.169 2.17"/>
	<path class="U6" d="M458.282 263.971l-2.17 2.17"/>
	<path class="U6" d="M478.367 283.795l-2.17 2.17"/>
	<path class="U5" d="M881.572 383.143l-2.17-2.17"/>
	<path class="U5" d="M967.033 297.661l-2.169-2.168"/>
	<path class="U5" d="M950.709 314.28l-2.168-2.168"/>
	<path class="U5" d="M935.877 328.965l-2.168-2.169"/>
	<path class="U5" d="M898.977 366.221l-2.168-2.169"/>
	<path class="U5" d="M998.125 266.844l-2.17-2.169"/>
	<path class="U5" d="M982.846 281.432l-2.17-2.169"/>
	<path class="U5" d="M655.52 315.163l-2.17 2.168"/>
	<path class="U5" d="M672.598 336.534l2.168-2.17"/>
	<path class="U5" d="M695.682 354.827l-2.168 2.17"/>
	<path class="U5" d="M769 361.26v3.066"/>
	<path class="U5" d="M821 361.463v3.067"/>
	<path class="U5" d="M682.607 346.655l2.17-2.17"/>
	<path class="U5" d="M861.787 384.803l-2.17 2.17"/>
	<path class="U6" d="M280.06 89l2.17-1-2.17 1z"/>
	<path class="U6" d="M288.59 98.845l2.168-2.169"/>
	<path class="U6" d="M297.982 108.438l2.169-2.17"/>
	<path class="U6" d="M308.181 118.042l2.17-2.169"/>
	<path class="U6" d="M350.156 156.17l-2.17 2.168"/>
	<path class="U6" d="M335.076 145.46l2.169-2.169"/>
	<path class="U6" d="M365.998 172l-2.17 1 2.17-1z"/>
	<path class="U8" d="M466.868 180.856l-2.17 2.169"/>
	<path class="S1" d="M221 654.23v-3.066"/>
	<path class="S1" d="M177 650.814v3.067"/>
	<path class="S1" d="M273.737 638l2.17 1-2.17-1z"/>
	<path class="S1" d="M294.657 618.455l2.169 2.168"/>
	<path class="S1" d="M373.435 548.5l-2.169-2.17"/>
	<path class="S1" d="M349.805 572.034l-2.168-2.168"/>
	<path class="S1" d="M425.733 496.381l-2.17-2.169"/>
	<path class="S1" d="M147.283 627.074l2.169-2.17"/>
	<path class="S1" d="M121 618.558v-3.067"/>
	<path class="U7" d="M261.03 278h-3.066"/>
	<path class="S5" d="M960 345.72v-3.067"/>
	<path class="S5" d="M1024 345.723v-3.066"/>
	<path class="S5" d="M1064.09 320.144l2.168 2.169"/>
	<path class="S5" d="M1053.715 330.668l2.168 2.17"/>
	<path class="S5" d="M1043 345.558v-3.067"/>
	<path class="S5" d="M991 345.554v-3.067"/>
	<path class="S5" d="M1071.052 306h3.067"/>
	<path class="S7" d="M872.318 268l-2.168-1 2.168 1z"/>
	<path class="S7" d="M910.423 227.428l2.169 2.17"/>
	<path class="S7" d="M933.16 205.032l2.168 2.169"/>
	<path class="S7" d="M814.753 227.881l-2.17 2.17"/>
	<path class="S7" d="M893.307 247l-2.168-1 2.168 1z"/>
	<path class="S2" d="M342.627 699l-2.17-1 2.17 1z"/>
	<path class="S2" d="M423.835 619.438l-2.169-2.17"/>
	<path class="S2" d="M496.31 613.865l-2.17 2.169"/>
	<path class="S2" d="M501.516 645h3.068"/>
	<path class="S2" d="M501.516 704h3.068"/>
	<path class="S1" d="M361.47 7.468l-2.17 2.17"/>
	<path class="S1" d="M354.687.503l-2.169 2.17"/>
	<path class="S1" d="M388.641 43.147l2.17-2.17"/>
	<path class="S1" d="M396.483 51.183l2.168-2.169"/>
	<path class="U2" d="M439.983 379h3.067"/>
	<path class="U2" d="M486 363.373v3.067"/>
	<path class="U2" d="M569 368.92v-3.068"/>
	<path class="U2" d="M598.886 347.045l2.169 2.17"/>
	<path class="U2" d="M585.334 361.126l2.131 2.206"/>
	<path class="U2" d="M581.16 256.155h-3.068z"/>
	<path class="U2" d="M581.16 238.767h-3.068z"/>
	<path class="U2" d="M581.338 273h-3.066"/>
	<path class="U2" d="M581.16 172h-3.068"/>
	<path class="U5" d="M436.575 321.03l2.232-2.232z"/>
	<path class="U9" d="M361 279h3.067"/>
</g>

<g fill="#FFF" stroke="#000" stroke-width=".5" transform="translate(19 4.89)">
	<path id="9089301" d="M296.607 85.075a1.839 1.839 0 1 1 1.124 1.694l-.594.595a1.84 1.84 0 1 1-1.001-.989l.606-.607a1.836 1.836 0 0 1-.135-.693z"/>
	<path id="9200000" d="M253.53 41.725a1.838 1.838 0 1 1 3.677 0 1.838 1.838 0 0 1-3.676 0z"/>
	<path id="9009202" d="M449.848 155.685a1.838 1.838 0 1 1 3.677 0 1.838 1.838 0 0 1-3.677 0z"/>
	<path id="9009102" d="M405.386 199.44a1.839 1.839 0 1 1 3.677-.001 1.839 1.839 0 0 1-3.677 0z"/>
	<path id="9143001" d="M676.313 61.774a1.843 1.843 0 1 1 3.688 0 1.844 1.844 0 1 1-3.688 0z"/>
	<path id="9350160" d="M727 10.844a1.843 1.843 0 1 1 3.688 0 1.844 1.844 0 1 1-3.688 0z"/>
	<path id="9175001" d="M937.996 350.911a1.845 1.845 0 1 1 3.69 0 1.845 1.845 0 0 1-3.69 0z"/>
	<path id="9320004" d="M1094.2 299.455a1.845 1.845 0 1 1 3.69 0 1.845 1.845 0 0 1-3.69 0z"/>
	<path id="9170004" d="M966.996 198.455a1.845 1.845 0 1 1 3.69 0 1.845 1.845 0 0 1-3.69 0z"/>
	<path id="9152001" d="M804.5 209.955a1.845 1.845 0 1 1 3.69 0 1.845 1.845 0 0 1-3.69 0z"/>
	<path id="9171003" d="M881.568 304.505a1.843 1.843 0 1 1 3.687-.003 1.843 1.843 0 0 1-3.687.003z"/>
	<path id="9013102" d="M635.34 417.858a1.84 1.84 0 1 1 3.679 0 1.84 1.84 0 0 1-3.68 0z"/>
	<path id="9003201" d="M450.6 308.5a2.5 2.5 0 1 1 5 .001 2.5 2.5 0 0 1-5-.002z"/>
	<path id="9058102" d="M481.553 576.484a1.838 1.838 0 1 1 3.676-.002 1.838 1.838 0 0 1-3.676.002z"/>
	<path id="9245027" d="M521 747.839a1.838 1.838 0 1 1 3.675-.003 1.838 1.838 0 0 1-3.675.003z"/>
	<path id="9044201" d="M337.475 487.52a1.844 1.844 0 1 1 3.688 0 1.844 1.844 0 0 1-3.688 0z"/>
	<path id="9042101" d="M337.506 454.183a1.844 1.844 0 1 1 3.689-.002 1.844 1.844 0 0 1-3.689.002z"/>
	<path id="9055102" d="M394.274 487.54a1.845 1.845 0 1 1 3.69.001 1.845 1.845 0 0 1-3.69-.001z"/>
	<path id="9041101" d="M308.577 483.15a1.843 1.843 0 1 1 3.688 0 1.845 1.845 0 1 1-3.688 0z"/>
	<path id="9024201" d="M278.778 355.322a1.839 1.839 0 1 1 3.677 0 1.839 1.839 0 0 1-3.677 0z"/>
	<!-- todo: split into U Kaiserdamm & S Messe Nord/ICC -->
	<path d="M221.295 359.55h1.98a1.356 1.356 0 0 1 1.18-.678h5.996a1.342 1.342 0 1 1 0 2.685h-5.982a1.4 1.4 0 0 1-1.184-.693l-2.655.018a.657.657 0 0 1-.657-.657l.01-3.256a1.84 1.84 0 1 1 1.312-.037v2.618z"/>
	<!-- todo: split into U Wilmersdorfer Str. & S Charlottenburg -->
	<path d="M275.97 386.1c.407.232.677.677.677 1.182l-.004 2.91c0 .741-.6 1.342-1.342 1.342a1.314 1.314 0 0 1-1.328-1.323l-.01-2.915c.008-.506.274-.957.68-1.194l-.005-3.696c0-.363.294-.657.657-.657l3.256.008a1.84 1.84 0 0 1 3.574.61 1.84 1.84 0 0 1-3.537.704h-2.618v3.03z"/>
	<path id="9020202" d="M333.764 225.518c.742 0 1.323.61 1.323 1.35l.003 4.553a1.342 1.342 0 0 1-2.685 0l-.002-4.538c.012-.755.629-1.365 1.36-1.365z"/>
	<path id="9023301" d="M337.544 417.798a1.843 1.843 0 1 1 3.688 0 1.845 1.845 0 1 1-3.688 0z"/>
	<path id="9100007" d="M526.9 275.927a1.342 1.342 0 0 1 0 2.684h-5.192a1.343 1.343 0 1 1 .016-2.688l5.176.004z"/>
	<path id="9020201" d="M267.749 242.848c.525.541.522 1.409.003 1.928-.524.523-1.366.503-1.891-.021l-3.967-3.854a1.341 1.341 0 1 1 1.897-1.898c.053.053 3.958 3.845 3.958 3.845z"/>
	<path id="9078101" d="M635.354 458.47a1.838 1.838 0 1 1 3.676-.002 1.838 1.838 0 0 1-3.676.002z"/>
	<path id="9260001" d="M974.338 677.61a1.84 1.84 0 1 1 .001 3.679 1.84 1.84 0 0 1-.001-3.679z"/>
	<path id="9310004" d="M1022.338 556.11a1.84 1.84 0 1 1 .001 3.679 1.84 1.84 0 0 1-.001-3.679z"/>
	<path id="9162001" d="M868.338 441.61a1.84 1.84 0 1 1 .001 3.679 1.84 1.84 0 0 1-.001-3.679z"/>
	<path id="9012103" d="M540.59 417.857a1.844 1.844 0 1 1 3.69 0 1.844 1.844 0 0 1-3.69 0z"/>
	<path id="9001201" d="M384.793 226.216c.012-.754.63-1.365 1.361-1.365.743 0 1.324.61 1.324 1.35l.075 5.417a1.342 1.342 0 1 1-2.685 0c0-.074-.075-5.402-.075-5.402z"/>
	<path id="9009104" d="M433.318 225.63c.524-.523 1.366-.503 1.89.022l4.779 4.778a1.343 1.343 0 0 1-1.897 1.899l-4.77-4.77c-.524-.541-.521-1.41-.002-1.928z"/>
	<path id="9007104" d="M526.9 258.91a1.342 1.342 0 0 1 0 2.683h-5.192a1.344 1.344 0 0 1 .016-2.687l5.176.004z"/>
	<path id="9008101" d="M526.9 244.349a1.343 1.343 0 0 1 0 2.684h-5.192a1.346 1.346 0 0 1-1.326-1.346c0-.741.601-1.342 1.342-1.342l5.176.004z"/>
	<path id="9077106" d="M729.129 502.25a1.342 1.342 0 0 1-1.898 1.898l-2.11-2.11a1.347 1.347 0 0 1 .014-1.89 1.342 1.342 0 0 1 1.898 0l2.096 2.102z"/>
	<path id="9086102" d="M343.217 136.992a1.838 1.838 0 1 1 3.677-.001 1.838 1.838 0 0 1-3.677.001z"/>
	<path id="9200005" d="M364.5 2.449a1.838 1.838 0 1 1 3.677-.001 1.838 1.838 0 0 1-3.677.001z"/>
	<path id="9018101" d="M253.5 232.449a1.838 1.838 0 1 1 3.677-.001 1.838 1.838 0 0 1-3.677.001z"/>
	<!-- todo: split into S Spandau & U Rathaus Spandau -->
	<path d="M34.147 265.022l-.002 2.522c.406.232.677.786.677 1.292l.003 3.131a1.342 1.342 0 0 1-2.685 0l-.002-3.118c.008-.505.288-1.058.693-1.293l-.016-3.2c0-.361.294-.656.657-.656l3.844-.014c.251-.717.866-1.208 1.669-1.208a1.839 1.839 0 1 1-1.699 2.543h-3.139z"/>
	<path id="9062202" d="M337.543 607.898a1.839 1.839 0 1 1 3.677-.001 1.839 1.839 0 0 1-3.678 0z"/>
	<!-- todo: split -->
	<path d="M481.844 477.054c-.128.254-.246.589-.246.893a1.886 1.886 0 1 0 1.887-1.887c-.36 0-.64.125-.927.299l-1.153-1.146c.171-.284.283-.6.283-.956a1.888 1.888 0 0 0-1.888-1.887c-.856 0-1.514.523-1.743 1.305h-2.479a1.888 1.888 0 0 0-3.689.56c0 1.043.845 1.887 1.887 1.887.867 0 1.564-.584 1.785-1.381l2.44.013c.181.853.893 1.39 1.8 1.39.325 0 .627-.086.9-.232l1.143 1.142z"/>
	<path id="9012101" d="M483.67 394.58c.754.01 1.357.681 1.357 1.414 0 .741-.598 1.283-1.339 1.283l-2.985-.004a1.342 1.342 0 0 1 0-2.684l2.967-.01z"/>
	<path id="9100020" d="M483.67 372.558c.754.01 1.357.682 1.357 1.415 0 .74-.598 1.283-1.339 1.283l-6.013-.005a1.341 1.341 0 1 1 0-2.683l5.995-.01z"/>
	<path id="9100002" d="M560.043 307.197v2.938c-.012.753-.682 1.357-1.415 1.357-.741 0-1.283-.599-1.283-1.34l.004-2.966c.001-.74.6-1.342 1.342-1.342a1.36 1.36 0 0 1 1.352 1.353z"/>
	<path d="M626.498 113.03a1.342 1.342 0 0 1 1.898-1.899l2.358 2.358a1.344 1.344 0 0 1-1.91 1.89l-2.346-2.35z"/>
	<path id="9100025" d="M480.733 346.602h2.96c.754.012 1.343.598 1.343 1.33 0 .74-.584 1.368-1.326 1.368l-2.99-.004c-.74 0-1.341-.6-1.341-1.342 0-.741.613-1.352 1.354-1.352z"/>
	<path id="9100001" d="M519.294 309.992c-.022 1.508-1.363 2.715-2.83 2.715-1.48 0-2.566-1.198-2.566-2.68l.008-3.024a2.684 2.684 0 0 1 2.684-2.684 2.721 2.721 0 0 1 2.705 2.706v2.967z"/>
	<path id="9100003" d="M618.412 331.422c-.54.526-1.443.478-1.96-.041-.525-.524-.486-1.33.04-1.854l6.93-6.924a1.34 1.34 0 0 1 1.897 0 1.36 1.36 0 0 1 0 1.913l-6.907 6.906z"/>
	<path id="9003102" d="M404.745 321.577l2.369 2.37c.526.541.478 1.442-.041 1.96-.524.524-1.33.484-1.854-.04l-2.387-2.393a1.34 1.34 0 0 1 0-1.897 1.361 1.361 0 0 1 1.913 0z"/>
	<path id="9100004" d="M648.514 356.566l-2.336 2.335c-.542.525-1.442.478-1.961-.04-.523-.525-.484-1.33.04-1.855l2.359-2.353a1.344 1.344 0 0 1 1.898 0c.523.524.522 1.39 0 1.913z"/>
	<path id="9120005" d="M664.672 377.375c-.542.525-1.442.477-1.962-.04-.522-.525-.483-1.33.043-1.856l2.41-2.405a1.344 1.344 0 0 1 1.898 0c.522.524.522 1.39 0 1.913l-2.39 2.388z"/>
	<path id="9003103" d="M369.953 356.658l2.053 2.053c.525.541.477 1.442-.041 1.961-.525.523-1.33.483-1.855-.04l-2.07-2.076a1.345 1.345 0 0 1 0-1.899 1.361 1.361 0 0 1 1.913.001z"/>
	<path id="9023201" d="M342.93 383.805l6.82 6.82c.526.542.477 1.444-.04 1.962-.525.524-1.33.485-1.855-.04l-6.839-6.845a1.341 1.341 0 0 1 0-1.897 1.361 1.361 0 0 1 1.913 0z"/>
	<path id="9024203" d="M311.594 387.158v3.102c-.012.753-.683 1.356-1.416 1.356-.74 0-1.283-.598-1.283-1.339l.004-3.13c0-.74.601-1.342 1.343-1.342a1.36 1.36 0 0 1 1.352 1.353z"/>
	<path id="9040101" d="M230.29 423.926l-5.727.02c-.753-.01-1.407-.62-1.407-1.352 0-.741.584-1.366 1.325-1.366l5.822.004c.74 0 1.341.6 1.341 1.34 0 .743-.613 1.354-1.353 1.354z"/>
	<path id="9044101" d="M239.437 484.467l-4.298 4.328c-.541.526-1.434.556-1.953.038-.523-.524-.553-1.38-.028-1.903l4.382-4.376a1.34 1.34 0 0 1 1.897 0 1.36 1.36 0 0 1 0 1.913z"/>
	<path id="9045102" d="M276.638 519.182l-5.558 5.588c-.542.525-1.435.557-1.953.038-.524-.524-.553-1.38-.029-1.903l5.643-5.636a1.34 1.34 0 0 1 1.897 0 1.36 1.36 0 0 1 0 1.913z"/>
	<path id="9058101" d="M487.903 519.197l-.001 5.844c-.021 1.508-1.363 2.715-2.83 2.715-1.481 0-2.565-1.198-2.565-2.68l.007-5.9a2.684 2.684 0 0 1 2.684-2.685 2.721 2.721 0 0 1 2.705 2.706z"/>
	<path id="9054104" d="M430.472 519.242l-7.6 7.63c-.54.525-1.434.556-1.952.038-.524-.525-.553-1.38-.029-1.903l7.683-7.678a1.342 1.342 0 0 1 1.898 0 1.36 1.36 0 0 1 0 1.913z"/>
	<path id="9044202" d="M340.606 519.207l.021 5.934c-.01.753-.621 1.407-1.354 1.407-.741 0-1.366-.585-1.366-1.326l.005-6.026c0-.741.6-1.342 1.341-1.342.742 0 1.353.613 1.353 1.353z"/>
	<path id="9054105" d="M397.472 519.207l.021 5.934c-.01.753-.62 1.407-1.354 1.407-.74 0-1.366-.585-1.366-1.326l.005-6.026c0-.741.6-1.342 1.341-1.342.742 0 1.353.613 1.353 1.353z"/>
	<path id="9068201" d="M543.733 518.784l.023 5.934c-.012.754-.622 1.407-1.354 1.407-.742 0-1.367-.585-1.367-1.326l.004-6.026c0-.74.602-1.34 1.342-1.34a1.36 1.36 0 0 1 1.352 1.351z"/>
	<path id="9079221" d="M638.531 519.207l.02 5.934c-.01.753-.62 1.407-1.354 1.407-.74 0-1.366-.585-1.366-1.326l.004-6.026a1.343 1.343 0 0 1 1.342-1.342c.742 0 1.354.613 1.354 1.353z"/>
	<path id="9078201" d="M687.234 519.207l.021 5.934c-.009.753-.62 1.407-1.353 1.407-.74 0-1.366-.585-1.366-1.326l.004-6.026c0-.741.6-1.342 1.342-1.342a1.36 1.36 0 0 1 1.352 1.353z"/>
	<path id="9190001" d="M770.09 450.972a1.343 1.343 0 1 1 0 2.684h-9.156a1.344 1.344 0 0 1 .015-2.688l9.14.004z"/>
	<path id="9120001" d="M770.09 370.893a1.343 1.343 0 1 1 0 2.684h-9.156a1.344 1.344 0 0 1 .015-2.688l9.14.004z"/>
	<path id="9110012" d="M770.09 338.997c.742 0 1.344.601 1.344 1.342 0 .741-.602 1.342-1.344 1.342h-9.156a1.344 1.344 0 0 1 .015-2.688l9.14.004z"/>
	<path id="9110004" d="M770.09 302.96a1.343 1.343 0 0 1 0 2.684l-9.156.002a1.346 1.346 0 0 1 .015-2.69l9.14.005z"/>
	<path id="9120003" d="M773.19 404.63l-12.061-.001c-2.28-.033-4.15-1.778-4.15-3.995 0-2.241 1.856-4.164 4.097-4.164l12.147.013a4.06 4.06 0 0 1 4.059 4.058c0 2.24-1.852 4.09-4.092 4.09z"/>
	<path id="9110003" d="M727.508 238.438a1.342 1.342 0 0 1 1.898 1.898l-6.474 6.475a1.343 1.343 0 0 1-1.89-1.912l6.466-6.462z"/>
	<path id="9110002" d="M683.533 221.745a1.343 1.343 0 0 1 2.684 0l.002 9.156a1.348 1.348 0 0 1-1.348 1.327c-.74 0-1.342-.6-1.342-1.34l.004-9.143z"/>
	<path id="9110001" d="M599.285 221.745a1.342 1.342 0 1 1 2.684 0v9.156a1.346 1.346 0 0 1-1.346 1.327 1.34 1.34 0 0 1-1.342-1.34l.004-9.143z"/>
	<path id="9110011" d="M543.91 191.689a1.342 1.342 0 0 1 1.898-1.898l6.474 6.475a1.344 1.344 0 0 1-1.91 1.89l-6.462-6.468z"/>
	<path id="9007102" d="M521.786 225.424a1.34 1.34 0 0 1 1.898 0l4.015 4.013a1.344 1.344 0 1 1-1.913 1.89l-4-4.006a1.343 1.343 0 0 1 0-1.897z"/>
	<path id="9130002" d="M594.773 144.839a1.342 1.342 0 0 1 1.898-1.898l4.498 4.498a1.347 1.347 0 0 1-.013 1.889 1.342 1.342 0 0 1-1.899 0l-4.484-4.49z"/>
	<path d="M646.035 93.625a1.342 1.342 0 0 1 1.898-1.898l2.273 2.272a1.346 1.346 0 0 1-.013 1.89 1.342 1.342 0 0 1-1.898 0l-2.26-2.264z"/>
	<path d="M523.165 159.74a1.342 1.342 0 0 1-1.898-1.898l4.729-4.73a1.345 1.345 0 0 1 1.89 1.912l-4.721 4.716z"/>
	<path d="M472.736 109.231a1.342 1.342 0 0 1-1.897-1.897l4.728-4.73a1.345 1.345 0 0 1 1.89 1.911l-4.721 4.716z"/>
	<path d="M451.156 87.585a1.341 1.341 0 1 1-1.897-1.898l2.285-2.286a1.345 1.345 0 0 1 1.888.014 1.34 1.34 0 0 1 0 1.897l-2.276 2.273z"/>
	<path d="M437.625 74.352a1.342 1.342 0 0 1-1.898-1.898l2.286-2.286a1.346 1.346 0 0 1 1.889.014 1.342 1.342 0 0 1 0 1.9l-2.277 2.27z"/>
	<path d="M427.975 64.767a1.342 1.342 0 0 1-1.898-1.898l2.286-2.286a1.345 1.345 0 0 1 1.89.014 1.34 1.34 0 0 1 0 1.898l-2.278 2.272z"/>
	<path d="M400.993 37.732a1.342 1.342 0 0 1-1.898-1.897l2.285-2.287a1.344 1.344 0 1 1 1.89 1.913l-2.277 2.271z"/>
	<path d="M387.481 25.743a1.34 1.34 0 0 1 0-1.898l2.088-2.09a1.344 1.344 0 1 1 1.89 1.912l-2.08 2.076a1.343 1.343 0 0 1-1.898 0z"/>
	<path d="M508.595 420.97c-.01.755-.617 1.358-1.349 1.358a1.346 1.346 0 0 1-1.349-1.34l.004-3.412a1.342 1.342 0 0 1 2.683 0l.011 3.395z"/>
	<path d="M542.01 451.691l-2.953.022c-.755-.01-1.408-.622-1.408-1.355 0-.74.586-1.366 1.326-1.366l3.047.005c.74 0 1.342.6 1.342 1.341a1.36 1.36 0 0 1-1.353 1.353z"/>
	<path d="M393.932 96.737l2.416-2.46c.26.14.55.252.863.252a1.838 1.838 0 1 0-1.839-1.839c0 .315.054.608.203.866l-2.385 2.417a1.795 1.795 0 0 0-.883-.23 1.838 1.838 0 1 0 1.839 1.839c0-.306-.093-.59-.214-.845z"/>
	<path d="M793.455 493.733a1.342 1.342 0 0 1-1.898-1.897l2.11-2.11a1.346 1.346 0 0 1 1.888.013 1.34 1.34 0 0 1 0 1.898l-2.1 2.096z"/>
	<path d="M827.065 531.501a1.341 1.341 0 1 1-1.897-1.898l.464-.464 3.937-3.938a1.345 1.345 0 0 1 2.284.961c0 .343-.131.687-.394.95l-4.394 4.39z"/>
	<path d="M863.07 567.564l4.534-4.532a1.345 1.345 0 0 1 1.89 1.912l-4.526 4.519-1.898-1.899z"/>
	<path d="M864.969 569.463a1.342 1.342 0 0 1-1.898-1.898l4.263-4.264a1.345 1.345 0 0 1 1.89 1.912l-4.255 4.25z"/>
	<path d="M880.168 584.573a1.343 1.343 0 0 1-1.899-1.897l4.139-4.139a1.343 1.343 0 0 1 1.889 1.911l-4.129 4.125z"/>
	<path d="M840.21 548.905a1.344 1.344 0 0 1-1.898-1.899l7.044-7.043a1.345 1.345 0 0 1 1.888.014 1.339 1.339 0 0 1 0 1.898l-7.034 7.03z"/>
	<path d="M911.965 616.627a1.34 1.34 0 0 1-1.896 0 1.337 1.337 0 0 1 0-1.897l2.18-2.182a1.345 1.345 0 0 1 1.89 1.911l-2.174 2.168z"/>
	<path d="M938.657 643.267a1.341 1.341 0 1 1-1.897-1.897l2.117-2.12a1.344 1.344 0 1 1 1.89 1.913l-2.11 2.104z"/>
	<path d="M950.73 655.298a1.341 1.341 0 1 1-1.899-1.897l2.11-2.111a1.346 1.346 0 0 1 1.89.014 1.34 1.34 0 0 1 0 1.898l-2.1 2.096z"/>
	<path d="M874.72 640.936a1.341 1.341 0 1 1 1.898-1.898l2.119 2.119a1.346 1.346 0 0 1-.014 1.888 1.342 1.342 0 0 1-1.9 0l-2.103-2.11z"/>
	<path d="M855.492 660.009a1.341 1.341 0 1 1 1.897-1.898l2.12 2.119a1.344 1.344 0 0 1-1.912 1.889l-2.105-2.11z"/>
	<path d="M786.794 727.503a1.341 1.341 0 0 1 1.897 0l1.812 1.812a1.345 1.345 0 0 1-1.912 1.89l-1.797-1.804a1.34 1.34 0 0 1 0-1.898z"/>
	<path d="M799.202 392.566a1.341 1.341 0 1 1 1.897-1.897l2.11 2.11a1.344 1.344 0 0 1-1.91 1.89l-2.097-2.103z"/>
	<path d="M815.908 373.715a1.342 1.342 0 0 1 0-2.684l9.073-.001a1.347 1.347 0 0 1 1.327 1.347c0 .74-.6 1.342-1.342 1.342l-9.058-.004z"/>
	<path d="M855.76 350.82a1.343 1.343 0 0 1 2.685 0v2.983a1.344 1.344 0 1 1-2.688-.015l.003-2.968z"/>
	<path d="M100.313 655.9l-2.104-2.073c-.525-.54-.556-1.435-.038-1.953.525-.525 1.379-.553 1.904-.029l2.151 2.158a1.341 1.341 0 0 1 0 1.897 1.36 1.36 0 0 1-1.913 0z"/>
	<path d="M84.693 667.48c-.526-.54-.556-1.434-.039-1.953.525-.524 1.38-.552 1.904-.028l2.15 2.155a1.342 1.342 0 0 1 0 1.898 1.36 1.36 0 0 1-1.913 0l-2.102-2.071z"/>
	<path d="M543.896 377.963l2.417-2.46c.258.139.547.252.86.252a1.84 1.84 0 1 0-1.837-1.84c0 .315.053.608.203.867l-2.386 2.416a1.795 1.795 0 0 0-.882-.23 1.84 1.84 0 1 0 1.839 1.84 1.97 1.97 0 0 0-.214-.845z"/>
	<path d="M230.514 309.308l-6.066.02c-.754-.01-1.408-.62-1.408-1.353 0-.74.585-1.365 1.326-1.365l6.16.004c.74 0 1.342.6 1.342 1.34 0 .743-.613 1.354-1.354 1.354z"/>
	<path d="M224.624 386.022l5.844.002c1.508.02 2.715 1.363 2.715 2.83 0 1.482-1.198 2.566-2.68 2.566l-5.9-.009a2.685 2.685 0 0 1-2.686-2.683 2.721 2.721 0 0 1 2.707-2.706z"/>
	<path d="M739.059 681.473a1.838 1.838 0 1 1 3.676 0 1.837 1.837 0 1 1-3.676 0z"/>
	<path d="M451.763 417.857a1.843 1.843 0 1 1 3.688 0 1.845 1.845 0 1 1-3.688 0z"/>
	<path d="M43 696.844a1.843 1.843 0 1 1 3.688 0 1.845 1.845 0 1 1-3.688 0z"/>
	<path d="M0 696.844a1.843 1.843 0 1 1 3.688 0 1.845 1.845 0 1 1-3.688 0z"/>
	<path d="M419 651.954a1.843 1.843 0 1 1 3.688 0 1.845 1.845 0 1 1-3.688 0z"/>
	<path d="M393.554 417.69l.005 5.963c-.01.754-.682 1.358-1.415 1.358-.74 0-1.283-.6-1.283-1.34v-5.992c0-.741.6-1.342 1.341-1.342s1.352.613 1.352 1.354z"/>
	<path d="M417.66 417.69l.005 9.066c-.012.755-.683 1.357-1.416 1.357-.74 0-1.283-.598-1.282-1.34l-.001-9.093c0-.741.6-1.343 1.34-1.343.743 0 1.354.613 1.354 1.354z"/>
	<path d="M685.816 393.744l-2.252 2.253c-.542.525-1.443.477-1.96-.04-.524-.524-.485-1.33.038-1.855l2.276-2.27a1.344 1.344 0 0 1 1.898 0c.525.523.525 1.39 0 1.912z"/>
</g>

</svg>
