<svg xmlns="http://www.w3.org/2000/svg" xmlns:xlink="http://www.w3.org/1999/xlink" width="1120" height="765" viewBox="0 0 1120 765"><style>
#lines .line {
	fill: none;
	stroke-width: 1;
}

#stations .station {
	fill: none;
	stroke-width: 1;
}

#stations .station.interchange {
	fill: #fff;
	stroke: #000;
	stroke-width: .5;
}

#stations .station.wifi {
	/* fill: #f9e800; */
}

#lines .line.S1, #stations .station.S1 {stroke: #de4da4}
#stations .station.interchange.S1 {stroke: #000}
#lines .line.S2, #stations .station.S2 {stroke: #005f27}
#stations .station.interchange.S2 {stroke: #000}
#lines .line.S25, #stations .station.S25 {stroke: #005f27}
#stations .station.interchange.S25 {stroke: #000}
#lines .line.S3, #stations .station.S3 {stroke: #0a4c99}
#stations .station.interchange.S3 {stroke: #000}
#lines .line.S5, #stations .station.S5 {stroke: #ff5900}
#stations .station.interchange.S5 {stroke: #000}
#lines .line.S7, #stations .station.S7 {stroke: #6f4e9c}
#stations .station.interchange.S7 {stroke: #000}
#lines .line.S75, #stations .station.S75 {stroke: #6f4e9c}
#stations .station.interchange.S75 {stroke: #000}
#lines .line.S85, #stations .station.S85 {stroke: #55a822}
#stations .station.interchange.S85 {stroke: #000}
#lines .line.S8, #stations .station.S8 {stroke: #55a822}
#stations .station.interchange.S8 {stroke: #000}
#lines .line.S9, #stations .station.S9 {stroke: #8a0e30}
#stations .station.interchange.S9 {stroke: #000}
#lines .line.S41, #stations .station.S41 {stroke: #a23b1e}
#stations .station.interchange.S41 {stroke: #000}
#lines .line.S42, #stations .station.S42 {stroke: #c26a36}
#stations .station.interchange.S42 {stroke: #000}
#lines .line.S45, #stations .station.S45 {stroke: #c38737}
#stations .station.interchange.S45 {stroke: #000}
#lines .line.S46, #stations .station.S46 {stroke: #c38737}
#stations .station.interchange.S46 {stroke: #000}
#lines .line.S47, #stations .station.S47 {stroke: #c38737}
#stations .station.interchange.S47 {stroke: #000}
#lines .line.U1, #stations .station.U1 {stroke: #55a822}
#stations .station.interchange.U1 {stroke: #000}
#lines .line.U3, #stations .station.U3 {stroke: #019377}
#stations .station.interchange.U3 {stroke: #000}
#lines .line.U2, #stations .station.U2 {stroke: #ff3300}
#stations .station.interchange.U2 {stroke: #000}
#lines .line.U4, #stations .station.U4 {stroke: #ffd900}
#stations .station.interchange.U4 {stroke: #000}
#lines .line.U5, #stations .station.U5 {stroke: #672f17}
#stations .station.interchange.U5 {stroke: #000}
#lines .line.U55, #stations .station.U55 {stroke: #672f17}
#stations .station.interchange.U55 {stroke: #000}
#lines .line.U6, #stations .station.U6 {stroke: #6f4e9c}
#stations .station.interchange.U6 {stroke: #000}
#lines .line.U7, #stations .station.U7 {stroke: #3690c0}
#stations .station.interchange.U7 {stroke: #000}
#lines .line.U8, #stations .station.U8 {stroke: #0a3c85}
#stations .station.interchange.U8 {stroke: #000}
#lines .line.U9, #stations .station.U9 {stroke: #ff7300}
#stations .station.interchange.U9 {stroke: #000}</style><defs><g id="label-S1"><path fill="#de4da4" d="M3.775 7.497h7.476a3.749 3.749 0 0 0 0-7.497H3.775a3.749 3.749 0 0 0 0 7.497z"></path><path fill="#fff" d="M6.297 1.06l-.099.894c-.265-.13-.734-.233-1.115-.233-.367 0-.851.175-.851.711 0 .993 2.388.6 2.388 2.43 0 1.019-.838 1.665-2.038 1.665-.606 0-.874-.076-1.407-.204l.099-.984c.382.206.81.313 1.243.311.408 0 .973-.21.973-.704 0-1.034-2.406-.612-2.406-2.412 0-1.008.732-1.672 1.914-1.672.466 0 .918.064 1.3.198zM8.48 2.231l1.599-1.27h.95v5.482H9.943V2.196l-.915.763-.55-.728z"></path></g><g id="label-S2"><path fill="#005f27" d="M3.775 7.497h7.476a3.749 3.749 0 0 0 0-7.497H3.775a3.749 3.749 0 0 0 0 7.497z"></path><path fill="#fff" d="M11.817 6.443h-3.63v-.926c.501-.487 2.374-2.04 2.374-3.053 0-.5-.448-.746-.909-.746-.457 0-.89.204-1.258.455l-.081-.903A3.317 3.317 0 0 1 9.938.868c1.04 0 1.715.533 1.715 1.596 0 1.156-1.176 2.243-2.068 3.11h2.232v.869zM6.297 1.06l-.099.897a2.79 2.79 0 0 0-1.115-.239c-.367 0-.851.178-.851.714 0 .996 2.388.603 2.388 2.432 0 1.02-.838 1.663-2.038 1.663-.606 0-.874-.073-1.407-.198l.099-.99c.382.204.81.31 1.243.309.408 0 .973-.207.973-.7 0-1.036-2.406-.611-2.406-2.417C3.084 1.53 3.816.86 4.998.86c.466 0 .918.067 1.3.204V1.06z"></path></g><g id="label-S3"><path fill="#0a4c99" d="M3.756 7.512h7.488a3.756 3.756 0 1 0 0-7.512H3.756a3.756 3.756 0 1 0 0 7.512z"></path><path fill="#fff" d="M6.306 1.065l-.099.89a2.83 2.83 0 0 0-1.12-.233c-.365 0-.85.175-.85.712 0 .995 2.393.601 2.393 2.437 0 1.021-.84 1.666-2.042 1.666-.61 0-.876-.076-1.41-.204l.1-.987c.382.208.81.317 1.245.315.409 0 .975-.21.975-.703 0-1.039-2.413-.613-2.413-2.422 0-1.004.735-1.672 1.92-1.672.467 0 .92.064 1.301.201zm1.918 5.309l.067-.949c.386.164.8.254 1.22.263.437 0 1.158-.22 1.158-.788 0-.645-.525-.864-1.22-.864h-.534v-.855h.52c.732 0 1.193-.257 1.193-.744 0-.526-.443-.712-.933-.712a2.73 2.73 0 0 0-1.22.286l-.082-.855A4.048 4.048 0 0 1 9.925.87c.686 0 1.804.236 1.804 1.4 0 .745-.467 1.095-1.001 1.322v.018c.683.073 1.033.636 1.033 1.296 0 1.316-1.182 1.634-2.093 1.634a6.203 6.203 0 0 1-1.444-.166z"></path></g><g id="label-S5"><path fill="#ff5900" d="M3.775 7.497h7.476a3.749 3.749 0 0 0 0-7.497H3.775a3.749 3.749 0 0 0 0 7.497z"></path><path fill="#fff" d="M6.32 1.06l-.096.894c-.268-.13-.734-.233-1.118-.233-.367 0-.848.175-.848.711 0 .993 2.389.603 2.389 2.432 0 1.02-.84 1.66-2.04 1.66-.608 0-.873-.073-1.406-.198l.099-.984c.382.204.808.31 1.24.308.409 0 .977-.21.977-.701 0-1.037-2.406-.612-2.406-2.418 0-1.002.73-1.669 1.913-1.669.466 0 .918.067 1.3.198H6.32zm5.397-.09v.807H9.62l-.035 1.17c.117-.026.286-.049.501-.049.766 0 1.765.34 1.765 1.762 0 1.046-.734 1.864-2.123 1.864-.425 0-.923-.058-1.29-.134l.04-1.002c.26.108.633.283 1.107.283.583 0 1.16-.26 1.16-.97 0-.717-.61-.935-1.241-.935-.335 0-.65.035-.985.125L8.572.967h3.145V.97z"></path></g><g id="label-S7"><path fill="#6f4e9c" d="M3.775 7.497h7.476a3.749 3.749 0 0 0 0-7.497H3.775a3.749 3.749 0 0 0 0 7.497z"></path><path fill="#fff" d="M6.32 1.063l-.093.888a2.825 2.825 0 0 0-1.115-.233c-.367 0-.85.175-.85.711 0 .993 2.388.6 2.388 2.43 0 1.019-.84 1.665-2.04 1.665-.608 0-.873-.075-1.406-.204l.099-.984c.38.207.807.315 1.24.314.408 0 .976-.21.976-.701 0-1.037-2.405-.612-2.405-2.418 0-1.002.73-1.669 1.913-1.669.466 0 .918.064 1.3.201H6.32zm1.917.743V.96h3.53v.894l-1.94 4.588h-1.2l2.033-4.637H8.237z"></path></g><g id="label-S8"><path fill="#55a822" d="M3.775 7.497h7.476a3.749 3.749 0 0 0 0-7.497H3.775a3.749 3.749 0 0 0 0 7.497z"></path><path fill="#fff" d="M6.32 1.06l-.099.894a2.854 2.854 0 0 0-1.115-.233c-.364 0-.848.175-.848.711 0 .993 2.389.6 2.389 2.432 0 1.02-.842 1.66-2.04 1.66-.608 0-.873-.073-1.406-.198l.099-.984c.382.205.81.31 1.244.308.407 0 .973-.21.973-.701 0-1.037-2.406-.612-2.406-2.418 0-1.002.734-1.669 1.916-1.669.466 0 .915.067 1.296.198H6.32z"></path><path fill="#fff" d="M9.961 4.037c-.408.21-.702.46-.702.92 0 .501.358.775.845.775.413 0 .763-.274.763-.728 0-.55-.457-.807-.906-.967zm.198-.871c.335-.149.612-.449.612-.786 0-.408-.254-.69-.71-.69-.35 0-.74.215-.74.658 0 .469.465.678.838.818zm.749.335c.728.344 1.057.83 1.057 1.456 0 1.034-.798 1.596-1.864 1.596-1.124 0-1.951-.495-1.951-1.514 0-.64.352-1.113 1.01-1.427-.542-.262-.906-.72-.906-1.296 0-.752.682-1.43 1.838-1.43 1.066 0 1.748.51 1.748 1.31a1.404 1.404 0 0 1-.932 1.305z"></path></g><g id="label-S9"><path fill="#8a0e30" d="M3.775 7.497h7.476a3.749 3.749 0 0 0 0-7.497H3.775a3.749 3.749 0 0 0 0 7.497z"></path><path fill="#fff" d="M6.323 1.063l-.099.888a2.825 2.825 0 0 0-1.115-.233c-.367 0-.85.175-.85.711 0 .993 2.388.6 2.388 2.43 0 1.019-.84 1.665-2.04 1.665-.605 0-.873-.075-1.406-.204l.099-.984a2.6 2.6 0 0 0 1.244.314c.407 0 .975-.21.975-.704 0-1.034-2.405-.612-2.405-2.412 0-1.005.73-1.672 1.913-1.672.466 0 .918.064 1.3.201h-.004z"></path><path fill="#fff" d="M10.086 3.676c.516 0 .731-.484.731-1.028 0-.507-.224-.98-.766-.98-.506 0-.74.505-.74.997 0 .527.234 1.01.775 1.01zM8.514 6.332l.14-.874c.298.145.626.22.958.222.958 0 1.264-.903 1.29-1.696a1.29 1.29 0 0 1-1.084.516c-1.022 0-1.587-.658-1.587-1.669 0-1.18.57-1.966 1.82-1.966 1.515 0 1.859 1.252 1.859 2.54 0 1.488-.484 3.145-2.249 3.145a2.77 2.77 0 0 1-1.147-.22v.002z"></path></g><g id="label-S25"><path fill="#005f27" d="M3.775 7.497h7.476a3.749 3.749 0 0 0 0-7.497H3.775a3.749 3.749 0 0 0 0 7.497z"></path><path fill="#fff" d="M3.763 1.238c.344 0 .728.058 1.107.18l-.023.778a2.243 2.243 0 0 0-.932-.224c-.432 0-.726.233-.726.64 0 .889 1.94.68 1.94 2.235 0 .844-.667 1.537-1.739 1.537a3 3 0 0 1-1.147-.218l.046-.853c.314.174.667.266 1.026.268.474 0 .774-.26.774-.659 0-1.028-1.922-.652-1.922-2.248 0-.83.615-1.436 1.596-1.436z"></path><path fill="#fff" d="M7.427 5.534h1.864v.798H6.42v-.824c1.165-1.165 1.806-2.033 1.806-2.785 0-.434-.291-.699-.664-.699a1.788 1.788 0 0 0-.958.297l-.1-.8c.382-.193.866-.283 1.274-.283.95 0 1.433.507 1.433 1.31 0 1.294-1.142 2.345-1.783 2.983v.003zm5.645-.903c0 1.005-.74 1.733-1.797 1.733a2.67 2.67 0 0 1-1.098-.218l.058-.787c.279.14.585.218.897.227.583 0 .967-.36.967-.935 0-.535-.393-.897-1.04-.897a2.6 2.6 0 0 0-.792.129V1.29h2.557v.778h-1.718v1.028c.164-.037.332-.053.5-.05.875 0 1.466.636 1.466 1.588v-.003z"></path></g><g id="label-S41"><path fill="#a23b1e" d="M3.756 7.512h7.488a3.756 3.756 0 1 0 0-7.512H3.756a3.756 3.756 0 1 0 0 7.512z"></path><path fill="#fff" d="M5.127 4.745c0 .846-.668 1.541-1.745 1.541-.367 0-.726-.053-1.152-.219l.05-.855a2.13 2.13 0 0 0 1.026.271c.479 0 .777-.262.777-.662 0-1.027-1.926-.654-1.926-2.25 0-.829.615-1.439 1.599-1.439.344 0 .73.059 1.112.184l-.024.776a2.262 2.262 0 0 0-.936-.224c-.435 0-.727.233-.727.642 0 .89 1.946.68 1.946 2.235zm7.305 1.488h-.972V2.305l-.648.663-.467-.689 1.284-1.068h.8v5.025l.003-.003z"></path><path fill="#fff" d="M8.224 4.494v-2.34l-1.235 2.34h1.235zm1.4.695h-.571v1.044h-.861V5.19H6.274v-.88l1.737-3.102H9.05v3.286h.575v.695z"></path></g><g id="label-S42"><path fill="#c26a36" d="M3.756 7.512h7.485a3.756 3.756 0 1 0 0-7.512H3.756a3.756 3.756 0 1 0 0 7.512z"></path><path fill="#fff" d="M5.125 4.745c0 .846-.666 1.541-1.743 1.541a3.006 3.006 0 0 1-1.152-.219l.05-.855a2.12 2.12 0 0 0 1.024.271c.478 0 .779-.262.779-.662 0-1.027-1.926-.654-1.926-2.25 0-.829.612-1.439 1.599-1.439.344 0 .726.059 1.109.184l-.024.776a2.253 2.253 0 0 0-.933-.224c-.438 0-.727.233-.727.642 0 .89 1.944.68 1.944 2.235z"></path><path fill="#fff" d="M13.039 6.233h-2.88v-.825c1.167-1.165 1.809-2.034 1.809-2.787 0-.438-.292-.7-.665-.7a1.772 1.772 0 0 0-.964.3l-.096-.806a3.02 3.02 0 0 1 1.278-.283c.955 0 1.44.511 1.44 1.314 0 1.295-1.148 2.349-1.79 2.985h1.87v.802h-.002zM8.224 4.494v-2.34l-1.238 2.34h1.238zm1.4.695h-.577v1.044h-.861V5.19H6.274v-.88l1.737-3.102h1.036v3.286h.575v.695h.003z"></path></g><g id="label-S45"><path fill="#c38737" d="M3.775 7.497a3.749 3.749 0 0 1 0-7.497h7.474a3.749 3.749 0 0 1 0 7.497H3.775z"></path><path fill="#fff" d="M13.139 4.622c0 1.002-.74 1.73-1.797 1.73a2.67 2.67 0 0 1-1.098-.218l.058-.786c.28.14.587.218.9.227.582 0 .964-.361.964-.935 0-.536-.39-.897-1.04-.897a2.55 2.55 0 0 0-.79.128V1.279h2.555v.777h-1.718v1.031a2.13 2.13 0 0 1 .504-.05c.873 0 1.462.636 1.462 1.588v-.003zm-7.998.193c0 .844-.667 1.537-1.742 1.537-.364 0-.725-.05-1.148-.218l.05-.85c.314.173.667.264 1.025.265.475 0 .772-.26.772-.662 0-1.025-1.922-.65-1.922-2.242 0-.83.617-1.442 1.602-1.442.338 0 .722.058 1.106.183l-.029.778a2.257 2.257 0 0 0-.929-.224c-.437 0-.725.233-.725.64 0 .889 1.94.682 1.94 2.235zm4.485.442h-.574v1.046h-.856V5.257H6.291v-.876l1.73-3.102h1.031v3.285h.574v.693zm-1.398-.693V2.222L6.996 4.564h1.232z"></path></g><g id="label-S46"><path fill="#c38737" d="M3.775 7.497h7.476a3.749 3.749 0 0 0 0-7.497H3.775a3.749 3.749 0 0 0 0 7.497z"></path><path fill="#fff" d="M5.161 4.777c0 .844-.664 1.535-1.742 1.535a3.01 3.01 0 0 1-1.147-.216l.05-.853c.312.174.664.266 1.022.268.477 0 .777-.262.777-.661 0-1.026-1.925-.65-1.925-2.243 0-.827.618-1.439 1.602-1.439.34 0 .722.058 1.107.183l-.03.778a2.237 2.237 0 0 0-.931-.224c-.431 0-.726.233-.726.64 0 .886 1.943.676 1.943 2.229v.003z"></path><path fill="#fff" d="M8.254 4.526V2.187L7.02 4.527h1.234zm1.398.693H9.08v1.043h-.857V5.22h-1.91v-.88l1.733-3.098H9.08v3.282h.573v.696zm3.69-.646c0 1.077-.698 1.756-1.59 1.756-1.069 0-1.581-.72-1.581-2.138 0-2.146.83-3.014 2.024-3.014.34 0 .606.052.891.125l-.058.778a1.98 1.98 0 0 0-.743-.152c-.71 0-1.068.626-1.135 1.427.168-.2.451-.308.853-.308.839 0 1.34.553 1.34 1.529v-.003zm-.943.087c0-.524-.248-.903-.632-.903-.355 0-.606.367-.606.935 0 .583.242.903.623.903.382 0 .615-.367.615-.935z"></path></g><g id="label-S47"><path fill="#c38737" d="M3.775 7.497h7.476a3.749 3.749 0 0 0 0-7.497H3.775a3.749 3.749 0 0 0 0 7.497z"></path><path fill="#fff" d="M5.135 4.736c0 .845-.67 1.538-1.745 1.538a3.03 3.03 0 0 1-1.15-.219l.052-.85a2.14 2.14 0 0 0 1.025.268c.475 0 .775-.262.775-.661 0-1.029-1.925-.65-1.925-2.246 0-.827.617-1.436 1.602-1.436.338 0 .722.058 1.107.184l-.03.774a2.249 2.249 0 0 0-.931-.224c-.432 0-.723.233-.723.64 0 .89 1.943.68 1.943 2.232zm7.954-2.688L11.581 6.22h-1.049l1.602-4.24h-1.94v-.775h2.892v.842h.003z"></path><path fill="#fff" d="M9.623 5.179H9.05V6.22h-.86V5.18H6.283v-.877l1.733-3.096H9.05v3.28h.573v.693zm-1.398-.694V2.15L6.99 4.485h1.235z"></path></g><g id="label-S75"><path fill="#6f4e9c" d="M3.775 7.497h7.476a3.749 3.749 0 0 0 0-7.497H3.775a3.749 3.749 0 0 0 0 7.497z"></path><path fill="#fff" d="M3.708 1.174c.34 0 .725.058 1.107.18l-.027.778a2.237 2.237 0 0 0-.932-.224c-.43 0-.722.233-.722.64 0 .889 1.94.68 1.94 2.235 0 .844-.667 1.537-1.739 1.537-.367 0-.728-.052-1.15-.218l.049-.85c.314.173.666.265 1.025.267.472 0 .775-.262.775-.66 0-1.029-1.922-.653-1.922-2.25 0-.826.611-1.435 1.596-1.435zm2.706.073H9.29v.844l-1.5 4.177H6.734L8.35 2.024H6.41v-.777h.004zm3.853 0h2.557v.777h-1.718v1.028a2.03 2.03 0 0 1 .5-.05c.875 0 1.469.636 1.469 1.588 0 1.002-.743 1.73-1.8 1.73a2.67 2.67 0 0 1-1.098-.218l.058-.786c.279.14.585.218.897.227.583 0 .967-.361.967-.935 0-.536-.39-.897-1.04-.897-.269 0-.536.043-.792.128V1.247z"></path></g><g id="label-S85"><path fill="#55a822" d="M3.775 7.497a3.749 3.749 0 0 1 0-7.497h7.474a3.749 3.749 0 0 1 0 7.497H3.775z"></path><path fill="#fff" d="M13.139 4.622c0 1.002-.74 1.73-1.797 1.73a2.67 2.67 0 0 1-1.098-.218l.058-.786c.28.14.587.218.9.227.582 0 .964-.361.964-.935 0-.536-.39-.897-1.04-.897a2.55 2.55 0 0 0-.79.128V1.279h2.555v.777h-1.718v1.031a2.13 2.13 0 0 1 .504-.05c.873 0 1.462.636 1.462 1.588v-.003zm-7.998.193c0 .844-.667 1.537-1.742 1.537-.364 0-.725-.05-1.148-.218l.05-.85c.314.173.667.264 1.025.265.475 0 .772-.26.772-.662 0-1.025-1.922-.65-1.922-2.242 0-.83.617-1.442 1.602-1.442.338 0 .722.058 1.106.183l-.029.778a2.257 2.257 0 0 0-.929-.224c-.437 0-.725.233-.725.64 0 .889 1.94.682 1.94 2.235zm2.624-.755c-.376.19-.64.417-.64.836 0 .457.325.708.768.708.379 0 .7-.25.7-.661 0-.504-.42-.737-.828-.883zm.18-.795c.304-.134.554-.408.554-.714 0-.372-.227-.632-.64-.632-.321 0-.68.198-.68.6 0 .429.426.618.767.746zm.682.306c.661.314.964.757.964 1.325 0 .947-.728 1.456-1.698 1.456-1.025 0-1.776-.448-1.776-1.377 0-.589.32-1.014.917-1.305-.495-.236-.827-.655-.827-1.18 0-.687.623-1.305 1.677-1.305.97 0 1.594.466 1.594 1.198 0 .541-.364 1.019-.85 1.188z"></path></g><g id="label-U55"><path fill="#672f17" d="M0 0h13.507v7.99H0z"></path><path fill="#fff" d="M12.688 1.023v.875h-2.015l-.016 1.246c.155-.043.314-.064.475-.062.766 0 1.687.39 1.687 1.907 0 1.085-.66 1.966-2.047 1.966a5.19 5.19 0 0 1-1.206-.149l.01-1.06c.33.191.703.296 1.084.304.521 0 1.083-.28 1.083-1.036 0-.766-.57-1.014-1.182-1.014a2.5 2.5 0 0 0-.92.167l.058-3.144h2.99zm-3.81 0v.875h-2.01L6.85 3.144a1.65 1.65 0 0 1 .47-.062c.767 0 1.69.39 1.69 1.907 0 1.085-.66 1.966-2.046 1.966a5.178 5.178 0 0 1-1.206-.149l.006-1.06c.33.191.704.296 1.086.304.524 0 1.085-.28 1.085-1.036C7.935 4.248 7.365 4 6.753 4a2.5 2.5 0 0 0-.92.167l.058-3.144h2.987zM.775 4.757V1.023H1.86v3.38c0 1.008.14 1.659.98 1.659.831 0 .958-.651.958-1.659v-3.38h1.107v3.734c0 1.569-.66 2.201-2.065 2.201-1.395 0-2.068-.632-2.068-2.201h.003z"></path></g><g id="label-U9"><path fill="#ff7300" d="M0 0h13.504v7.99H0z"></path><path fill="#fff" d="M1.882 4.757V1.023h1.17v3.38c0 1.008.319 1.659 1.22 1.659.894 0 1.204-.651 1.204-1.659v-3.38h1.19v3.734c0 1.569-.883 2.201-2.387 2.201-1.5 0-2.394-.632-2.394-2.201h-.003z"></path><path fill="#fff" d="M10.053 3.92c.552 0 .784-.518.784-1.095 0-.546-.242-1.045-.821-1.045-.543 0-.791.536-.791 1.06 0 .562.248 1.08.828 1.08zm-1.68 2.833l.151-.936c.319.156.668.238 1.023.242 1.024 0 1.355-.964 1.383-1.81a1.384 1.384 0 0 1-1.16.551c-1.097 0-1.705-.7-1.705-1.78 0-1.256.617-2.093 1.954-2.093 1.624 0 1.99 1.333 1.99 2.707 0 1.585-.518 3.349-2.409 3.349-.434 0-.828-.062-1.228-.23z"></path></g><g id="label-U8"><path fill="#0a3c85" d="M0 0h13.504v7.99H0z"></path><path fill="#fff" d="M1.873 4.757V1.023h1.166v3.38c0 1.008.32 1.656 1.221 1.656.89 0 1.204-.651 1.204-1.656v-3.38H6.65v3.734c0 1.569-.884 2.201-2.39 2.201-1.498 0-2.391-.632-2.391-2.201h.003z"></path><path fill="#fff" d="M9.91 4.3c-.437.224-.75.49-.75.98 0 .537.384.832.899.832.45 0 .822-.295.822-.776 0-.589-.49-.868-.97-1.035zm.214-.923c.357-.161.651-.48.651-.837 0-.438-.266-.742-.76-.742-.372 0-.793.233-.793.704 0 .5.499.723.899.875h.003zm.803.356c.775.366 1.132.881 1.132 1.55 0 1.105-.856 1.7-1.997 1.7-1.206 0-2.087-.527-2.087-1.612 0-.683.372-1.185 1.08-1.523-.58-.279-.974-.766-.974-1.38 0-.803.731-1.525 1.972-1.525 1.14 0 1.873.545 1.873 1.398a1.495 1.495 0 0 1-.999 1.392z"></path></g><g id="label-U7"><path fill="#3690c0" d="M0 0h13.504v7.99H0z"></path><path fill="#fff" d="M8.124 1.941v-.915h3.767v.962l-2.093 4.88H8.54l2.16-4.927H8.125zM1.873 4.757v-3.73h1.166V4.4c0 1.008.32 1.659 1.221 1.659.89 0 1.204-.651 1.204-1.659V1.026H6.65v3.73c0 1.57-.884 2.202-2.39 2.202-1.501 0-2.391-.632-2.391-2.201h.003z"></path></g><g id="label-U6"><path fill="#6f4e9c" d="M0 0h13.504v7.99H0z"></path><path fill="#fff" d="M1.873 4.757v-3.73h1.169V4.4c0 1.005.322 1.659 1.222 1.659.893 0 1.206-.651 1.206-1.659V1.023h1.184v3.73c0 1.57-.883 2.202-2.387 2.202-1.501 0-2.394-.633-2.394-2.202v.004z"></path><path fill="#fff" d="M10.053 3.963c-.57 0-.794.527-.794 1.017 0 .632.232 1.132.822 1.132.542 0 .769-.537.769-1.055 0-.567-.227-1.094-.797-1.094zM11.72 1.14l-.133.952a2.316 2.316 0 0 0-1.036-.239c-1.017 0-1.346.952-1.383 1.817.26-.382.7-.602 1.163-.58 1.104 0 1.711.686 1.711 1.79 0 1.23-.679 2.102-2.043 2.102-1.544 0-1.953-1.194-1.953-2.735 0-1.56.555-3.302 2.452-3.302a3.5 3.5 0 0 1 1.222.195z"></path></g><g id="label-U5"><path fill="#672f17" d="M0 0h13.504v7.99H0z"></path><path fill="#fff" d="M11.802 1.023v.875H9.557l-.019 1.246c.124-.034.291-.062.515-.062.837 0 1.891.39 1.891 1.907 0 1.085-.766 1.966-2.282 1.966a6.59 6.59 0 0 1-1.364-.149l.006-1.06c.383.192.805.296 1.234.304.57 0 1.228-.28 1.228-1.036 0-.766-.667-1.014-1.337-1.014a3.225 3.225 0 0 0-1.054.167l.068-3.144h3.362-.003zm-9.93 3.734V1.023H3.04v3.38c0 1.008.322 1.659 1.221 1.659.893 0 1.207-.651 1.207-1.659v-3.38H6.65v3.734c0 1.569-.88 2.201-2.387 2.201-1.501 0-2.394-.632-2.394-2.201h.003z"></path></g><g id="label-U4"><path fill="#ffd900" d="M0 0h13.507v7.99H0z"></path><path fill="#000" d="M1.873 4.757v-3.73h1.169V4.4c0 1.008.322 1.659 1.222 1.659.893 0 1.206-.651 1.206-1.659V1.026h1.184v3.73c0 1.57-.883 2.202-2.39 2.202-1.498 0-2.388-.632-2.388-2.201h-.003z"></path><path fill="#000" d="M8.884 4.794h1.488V2.233L8.884 4.797v-.003zm-1.039.88v-.96l2.202-3.69h1.435v3.77h.766v.88h-.769v1.194h-1.104V5.674H7.842h.003z"></path></g><g id="label-U3"><path fill="#019377" d="M0 0h13.504v7.99H0z"></path><path fill="#fff" d="M1.873 4.757v-3.73h1.169V4.4c0 1.008.322 1.659 1.225 1.659.89 0 1.203-.651 1.203-1.659V1.026h1.184v3.73c0 1.57-.88 2.202-2.387 2.202-1.501 0-2.394-.632-2.394-2.201z"></path><path fill="#fff" d="M9.33 3.46h-.36v.831h.416c.744 0 1.135.289 1.135.856 0 .524-.443.909-1.06.909a2.803 2.803 0 0 1-1.176-.282l-.059.94c.433.168.894.25 1.358.241 1.281 0 2.072-.67 2.072-1.736 0-.466-.155-.86-.453-1.104-.183-.152-.332-.217-.716-.31.227-.054.442-.151.632-.286.308-.238.48-.612.46-1.001 0-.949-.701-1.547-1.808-1.547-.428 0-.825.068-1.402.245l.074.914a2.276 2.276 0 0 1 1.107-.332c.543 0 .928.33.928.816 0 .555-.41.85-1.15.85l.002-.004z"></path></g><g id="label-U2"><path fill="#ff3300" d="M0 0h13.504v7.99H0z"></path><path fill="#fff" d="M11.944 6.868H8.031v-.97c.48-.438 2.459-2.103 2.459-3.244 0-.552-.3-.818-.871-.818-.488.02-.959.187-1.35.48l-.108-.961a3.504 3.504 0 0 1 1.75-.428c1.177 0 1.847.623 1.847 1.64 0 1.29-1.364 2.45-2.32 3.35h2.506v.951zM1.873 4.757v-3.73h1.169V4.4c0 1.008.322 1.659 1.225 1.659.89 0 1.203-.651 1.203-1.659V1.026h1.184v3.73c0 1.57-.88 2.202-2.387 2.202-1.501 0-2.394-.632-2.394-2.201z"></path></g><g id="label-U1"><path fill="#55a822" d="M0 0h13.504v7.99H0z"></path><path fill="#fff" d="M8.357 2.388l1.714-1.365h1.042v5.842H9.935V2.37l-.961.781-.617-.762zM1.873 4.757V1.023h1.166V4.4c0 1.005.32 1.656 1.221 1.656.89 0 1.204-.651 1.204-1.656V1.02H6.65v3.737c0 1.565-.884 2.198-2.39 2.198-1.501 0-2.391-.633-2.391-2.202l.003.004z"></path></g></defs><g id="labels"><use class="label S1" xlink:href="#label-S1" href="#label-S1" transform="translate(365, 0)"></use><use class="label S1" xlink:href="#label-S1" href="#label-S1" transform="translate(113, 672)"></use><use class="label S2" xlink:href="#label-S2" href="#label-S2" transform="translate(752, 7)"></use><use class="label S2" xlink:href="#label-S2" href="#label-S2" transform="translate(539, 757)"></use><use class="label S3" xlink:href="#label-S3" href="#label-S3" transform="translate(1044, 567)"></use><use class="label S3" xlink:href="#label-S3" href="#label-S3" transform="translate(760, 410)"></use><use class="label S5" xlink:href="#label-S5" href="#label-S5" transform="translate(32, 269)"></use><use class="label S5" xlink:href="#label-S5" href="#label-S5" transform="translate(1105, 219)"></use><use class="label S7" xlink:href="#label-S7" href="#label-S7" transform="translate(0, 699)"></use><use class="label S7" xlink:href="#label-S7" href="#label-S7" transform="translate(990, 194)"></use><use class="label S8" xlink:href="#label-S8" href="#label-S8" transform="translate(411, 18)"></use><use class="label S8" xlink:href="#label-S8" href="#label-S8" transform="translate(975, 653)"></use><use class="label S9" xlink:href="#label-S9" href="#label-S9" transform="translate(625, 149)"></use><use class="label S9" xlink:href="#label-S9" href="#label-S9" transform="translate(810, 739)"></use><use class="label S25" xlink:href="#label-S25" href="#label-S25" transform="translate(255, 38)"></use><use class="label S25" xlink:href="#label-S25" href="#label-S25" transform="translate(297, 728)"></use><use class="label S41" xlink:href="#label-S41" href="#label-S41" transform="translate(594, 513)"></use><use class="label S41" xlink:href="#label-S41" href="#label-S41" transform="translate(493, 239)"></use><use class="label S42" xlink:href="#label-S42" href="#label-S42" transform="translate(594, 534)"></use><use class="label S42" xlink:href="#label-S42" href="#label-S42" transform="translate(493, 222)"></use><use class="label S45" xlink:href="#label-S45" href="#label-S45" transform="translate(793, 739)"></use><use class="label S45" xlink:href="#label-S45" href="#label-S45" transform="translate(340, 533)"></use><use class="label S46" xlink:href="#label-S46" href="#label-S46" transform="translate(254, 309)"></use><use class="label S46" xlink:href="#label-S46" href="#label-S46" transform="translate(997, 686)"></use><use class="label S47" xlink:href="#label-S47" href="#label-S47" transform="translate(930, 554)"></use><use class="label S47" xlink:href="#label-S47" href="#label-S47" transform="translate(640, 536)"></use><use class="label S75" xlink:href="#label-S75" href="#label-S75" transform="translate(774, 171)"></use><use class="label S75" xlink:href="#label-S75" href="#label-S75" transform="translate(226, 398)"></use><use class="label S85" xlink:href="#label-S85" href="#label-S85" transform="translate(451, 57)"></use><use class="label S85" xlink:href="#label-S85" href="#label-S85" transform="translate(840, 554)"></use><use class="label S85" xlink:href="#label-S85" href="#label-S85" transform="translate(935, 611)"></use><use class="label U55" xlink:href="#label-U55" href="#label-U55" transform="translate(464, 299)"></use><use class="label U55" xlink:href="#label-U55" href="#label-U55" transform="translate(507, 349)"></use><use class="label U9" xlink:href="#label-U9" href="#label-U9" transform="translate(473, 149)"></use><use class="label U9" xlink:href="#label-U9" href="#label-U9" transform="translate(358, 619)"></use><use class="label U8" xlink:href="#label-U8" href="#label-U8" transform="translate(463, 67)"></use><use class="label U8" xlink:href="#label-U8" href="#label-U8" transform="translate(658, 536)"></use><use class="label U7" xlink:href="#label-U7" href="#label-U7" transform="translate(39, 259)"></use><use class="label U7" xlink:href="#label-U7" href="#label-U7" transform="translate(764, 691)"></use><use class="label U6" xlink:href="#label-U6" href="#label-U6" transform="translate(296, 85)"></use><use class="label U6" xlink:href="#label-U6" href="#label-U6" transform="translate(555, 598)"></use><use class="label U5" xlink:href="#label-U5" href="#label-U5" transform="translate(618, 337)"></use><use class="label U5" xlink:href="#label-U5" href="#label-U5" transform="translate(1054, 254)"></use><use class="label U4" xlink:href="#label-U4" href="#label-U4" transform="translate(408, 533)"></use><use class="label U4" xlink:href="#label-U4" href="#label-U4" transform="translate(428, 436)"></use><use class="label U3" xlink:href="#label-U3" href="#label-U3" transform="translate(177, 619)"></use><use class="label U3" xlink:href="#label-U3" href="#label-U3" transform="translate(428, 410)"></use><use class="label U2" xlink:href="#label-U2" href="#label-U2" transform="translate(120, 294)"></use><use class="label U2" xlink:href="#label-U2" href="#label-U2" transform="translate(598, 137)"></use><use class="label U1" xlink:href="#label-U1" href="#label-U1" transform="translate(324, 417)"></use><use class="label U1" xlink:href="#label-U1" href="#label-U1" transform="translate(709, 388)"></use></g><g id="lines"><path id="line-S1" class="line S1" d="M384.905 7.22l181.23 181.355c.979.942 1.984 2.65.574 4.086l-23.486 23.488s-.953.987-1.275 1.776c-.336.822-.326 2.253-.326 2.253v80.866c0 1.83-.13 2.916-1.643 4.43l-38.284 38.15c-1.924 1.923-2.04 2.828-1.99 5.743V468.36c0 2.74.179 3.644-2.003 5.826L308.412 662.49s-1.044.96-1.862 1.298c-.797.328-2.174.394-2.174.394h-85.292s-1.434-.065-2.26-.412c-.812-.343-1.85-1.3-1.85-1.3l-28.98-28.982s-1.007-.955-1.805-1.285c-.807-.334-2.212-.364-2.212-.364l-28.36-.066c-3.195 0-5.482.135-7.96 2.607l-39.012 39.058"></path><path id="line-S2" class="line S2" d="M541.938 753.552V637.768s-.03-1.474-.391-2.316c-.347-.81-1.337-1.824-1.337-1.824l-35.363-35.363c-2.029-2.029-2.201-3.723-2.201-6.667m245.541-575.99l-201.79 201.406s-.929 1.007-1.262 1.795c-.343.82-.399 2.247-.399 2.247l-.047 80.57c0 1.86-.392 3.795-2.522 5.924l-38.849 38.714c-.943.945-.691 1.818-.691 2.962l.019 242.312"></path><path id="line-S25" class="line S25" d="M273 48l1.357-1.485 54.544 54.422s1.01 1.026 1.836 1.362c.804.326 2.203.314 2.203.314l154.114-.086s1.493.106 2.353.474c.773.33 1.792 1.196 1.792 1.196l79.826 79.829c4.281 4.29 1.149 7.688-2.025 10.974M315.716 734.179l.005-2.44h47.31s1.382-.081 2.183-.41c.82-.336 1.882-1.278 1.882-1.278l133.663-133.982c1.542-1.555 1.907-2.46 1.887-4.531l-.02-242.312c0-1.144-.251-2.017.692-2.962l38.849-38.714c2.13-2.13 2.522-4.064 2.522-5.923l.048-80.571s.055-1.426.399-2.247c.332-.788 1.26-1.795 1.26-1.795L569 195"></path><path id="line-S3" class="line S3" d="M783.117 408.489l29.795.009c2.996 0 5.047.462 7.026 2.423 0 0 32.878 32.996 35.552 35.67 1.555 1.555 3.068 1.915 4.812 1.915l60.854-.058c3.971 0 6.198.8 8.74 3.23l111.594 111.595"></path><path id="line-S5" class="line S5" d="M51.909 274.11c5.515-.012 6.238.293 7.975 2.029l83.852 83.686 29.372 29.372c2.117 2.117 4.453 2.882 7.519 2.882l173.262-.008c3.08 0 4.316.169 6.182-1.697l73.084-73.427c4.276-4.275 6.342-4.87 11.863-4.87l166.406.007c4.633 0 7.024.182 10.733 3.89l85.12 85.075c1.653 1.653 3.45 1.444 5.368 1.444h96.465c3.043 0 4.107-.038 5.66-1.591l41.949-41.85c2.636-2.634 3.996-3.274 8.19-3.274l219.768-.08s1.476-.127 2.319-.507c.946-.426 2.108-1.623 2.108-1.623l24.306-24.62s.936-1.033 1.258-1.841c.326-.814.356-2.22.356-2.22l-.074-95.28"></path><path id="line-S7" class="line S7" d="M988.234 203.044l-83.206 83.281c-2.13 2.131-2.76 3.64-2.76 6.777v57.846c0 4.576-1.3 7.758-8.315 7.758l-28.943-.004c-2.768 0-3.84.14-5.977 2.275l-41.982 41.981c-2.254 2.245-4.139 2.537-7.272 2.537l-97.265.018c-3.16 0-5.274-.237-7.3-2.263l-85.023-85.07c-2.64-2.64-4.48-3.253-8.607-3.253l-167.927.015c-2.41 0-4.666.787-6.089 2.21l-76.402 76.207s-1.013 1.072-1.855 1.416c-.755.31-2.067.32-2.067.32H213.602c-3.792.017-4.962.091-7.456 2.585l-81.409 81.36c-2.487 2.487-2.865 5.685-2.865 8.916l.057 161.981c0 3.558-.83 4.788-3.165 7.123L77.79 697.88c-3.343 3.348-3.985 3.946-8.344 3.946l-48.899-.115"></path><path id="line-S75" class="line S75" d="M246 395.094h111.244s1.312-.01 2.067-.319c.842-.344 1.855-1.416 1.855-1.416l76.402-76.207c1.423-1.423 3.678-2.21 6.09-2.21l167.926-.015c4.126 0 5.966.612 8.607 3.253l85.023 85.07c2.026 2.026 4.14 2.263 7.3 2.263l97.265-.018c3.133 0 5.018-.292 7.272-2.537l41.982-41.98c2.136-2.137 3.21-2.276 5.977-2.276l28.943.004c7.015 0 8.314-3.182 8.314-7.758v-57.846l-.296.046c-.42-1.933-1.321-3.108-2.84-4.627L791.383 180.773l2.11-2.093"></path><path id="line-S85" class="line S85" d="M571.89 196.1c1.908-1.862 1.425-5.076-.708-7.066L448.529 66.535M572 196l-8.99 9.075c-2.935 2.934-1.816 6.346.093 8.257l14.593 14.552c1.929 1.93 3.977 1.765 5.863 1.765l138.039.055c4.987 0 7.49.566 10.086 3.163l52.986 53.135s.99 1.015 1.328 1.829c.336.807.362 2.212.362 2.212l-.131 180.056s.113 1.487.492 2.337c.346.772 1.248 1.774 1.248 1.774L932 619"></path><path id="line-S8" class="line S8" d="M409.33 27.404l16.178 16.17c.997.997 1.31 1.116 2.312 1.116h5.812c.91 0 1.68-.1 2.582-.998l3.344-3.35c1.259-1.26 2.009-1.354 3.253-1.354l195.615-.098s1.395.128 2.209.462c.814.334 1.895 1.22 1.895 1.22l36.05 36.016c5.08 5.079 4.813 8.08.92 11.973L563.01 205.075c-2.935 2.934-1.816 6.346.093 8.257l14.593 14.552c1.929 1.93 3.977 1.765 5.863 1.765l138.039.055c4.987 0 7.49.566 10.086 3.163l52.986 53.135s.99 1.015 1.328 1.829c.336.807.362 2.212.362 2.212l-.131 180.056s.113 1.487.492 2.337c.346.772 1.248 1.774 1.248 1.774L971.05 657.232"></path><path id="line-S9" class="line S9" d="M619.223 153.15l-53.987 54.13c-1.257 1.224-1.165 2.882.354 4.4l13.416 13.469c1.444 1.443 2.004 1.596 3.867 1.596h138.04c5.578.003 8.335-.313 12.8 4.152l52.16 52.25c1.525 1.523 3.248 3.076 3.248 7.09V467.33c0 2.658.543 4.249 2.527 6.233l113.487 112.889s.918 1.045 1.203 1.755c.327.81.414 2.296.414 2.296l.113 44.08s-.078 1.413-.421 2.227c-.332.78-1.24 1.786-1.24 1.786l-96.785 96.817"></path><path id="line-S41" class="line S41" d="M727.813 237.49l50.49 50.299s.889.993 1.225 1.758c.368.84.464 2.303.464 2.303l-.048 176.787s-.06 1.38-.387 2.18c-.328.798-1.256 1.82-1.256 1.82l-49.57 49.688s-1.033 1.024-1.866 1.368c-.803.33-2.197.352-2.197.352l-429.221.067s-1.368-.09-2.16-.42c-.82-.341-1.875-1.298-1.875-1.298l-40.458-40.573s-.912-1.01-1.236-1.796c-.343-.833-.385-2.278-.385-2.278l.132-191.217s.16-1.372.494-2.176c.345-.828 1.244-1.934 1.244-1.934l44.941-45.07s1.06-.905 1.868-1.247c.805-.34 2.195-.47 2.195-.47l420.282-.036c3.753 0 5.6.17 7.324 1.894z"></path><path id="line-S42" class="line S42" d="M729.697 235.203l51.555 51.516s.92 1.017 1.254 1.805c.343.812.423 2.217.423 2.217l.015 179.072s.055 1.409-.43 2.483c-.366.808-1.75 2.134-1.75 2.134l-50.82 50.935s-1 .943-1.788 1.279c-.785.333-2.149.404-2.149.404l-431.934.067s-1.388-.102-2.19-.442c-.739-.314-1.713-1.141-1.713-1.141l-42.108-42.225s-.834-.97-1.153-1.708c-.364-.842-.456-2.31-.456-2.31V285.233s.094-1.353.413-2.142c.334-.825 1.266-1.899 1.266-1.899l46.8-46.848s1.08-.89 1.888-1.236c.832-.355 2.261-.516 2.261-.516l421.36.062c4.154 0 6.988.282 9.256 2.548z"></path><path id="line-S45" class="line S45" d="M358 530.12l479.186-.375s1.349.05 2.128.376c.872.364 1.938 1.459 1.938 1.459L899 589m-92.7 144.152l95.284-95.405s.934-.9 1.283-1.628c.427-.893.444-2.5.444-2.5l.189-37.068s-.01-1.153-.224-1.846c-.3-.968-1.21-2.211-1.21-2.211L899 589"></path><path id="line-S46" class="line S46" d="M243.452 313.437v167.26s.115 1.387.45 2.194c.324.78 1.185 1.817 1.185 1.817l43.854 43.853s.942.746 1.637 1.049c.827.359 2.256.507 2.256.507l544.352-.372s1.349.05 2.128.376c.872.364 1.938 1.459 1.938 1.459l153.037 153.287"></path><path id="line-S47" class="line S47" d="M656 530.12l181.186-.375s1.349.05 2.128.376c.872.364 1.938 1.459 1.938 1.459L861 551m65.559 3.855l-.037 2.415h-57.154c-1.76 0-2.253.206-4.102-1.643L861 551"></path><path id="line-U1" class="line U1" d="M702.19 399.293l-21.448 21.65s-.96 1.045-1.76 1.41c-.848.383-2.357.383-2.357.383l-335.168.011-.007-2.89"></path><path id="line-U3" class="line U3" d="M196.622 624.866l-1.85-1.836 194.536-194.998c2.007-2.008 3.64-2.204 6.18-2.204l40.152-.023"></path><path id="line-U2" class="line U2" d="M137.247 302.916l2.338-2.345 57.573 57.651s1.027 1.04 1.864 1.385c.796.33 2.18.347 2.18.347l127.876.241s1.355.092 2.142.415c.818.335 1.877 1.27 1.877 1.27l65.52 65.402c.987.972 1.993 1.522 3.719 1.521l59.963.04c1.969 0 4.407.101 5.355-1.126l14.817-14.872c1.227-1.339 1.505-1.98 1.505-3.933l-.026-26.994c0-1.82 1.27-3.06 3.092-3.06l136.003-.076s1.566.167 2.455-.195c.893-.363 1.898-1.58 1.898-1.58l16.455-16.406s.876-1.095 1.2-1.914c.333-.839.438-2.273.438-2.273l.097-23.157s-.111-1.459-.477-2.298c-.3-.69-1.06-1.617-1.06-1.617l-22.777-22.778s-.944-1.028-1.281-1.83c-.354-.835-.418-2.286-.418-2.286l.124-149.148"></path><path id="line-U4" class="line U4" d="M435.149 431.798h-17.821c-1.084 0-2.206.94-2.206 2.022v92.857"></path><path id="line-U5" class="line U5" d="M643.38 328.445c2.134-2.133 2.61-2.323 4.74-2.323l39.65.037s1.457.065 2.293.427c.756.328 1.732 1.216 1.732 1.216l47.75 47.65s1.022.915 1.809 1.26c.836.37 2.29.485 2.29.485l136.739.019s1.36.056 2.156.363c.799.307 1.847 1.184 1.847 1.184l20.149 20.239s1.002.838 1.756 1.163c.848.365 2.317.484 2.317.484h2.787s1.482-.06 2.328-.428c.77-.338 1.757-1.26 1.757-1.26l134.47-134.473 2.13 2.12"></path><path id="line-U55" class="line U55" d="M500.7 353c-3.456.011-4.102.452-6.56-2.005l-19.563-19.564c-2.11-2.109-2.597-2.91-2.597-5.183V314"></path><path id="line-U6" class="line U6" d="M314.747 92.488l243.837 244.11c2.115 2.114 2.764 3.124 2.764 5.72l-.01 250.932 2.739-.005"></path><path id="line-U7" class="line U7" d="M760.55 687.008l-53.511-53.37c-1.6-1.6-1.992-2.854-1.992-4.279l-.115-132.864s-.118-1.335-.442-2.113c-.333-.81-1.242-1.873-1.242-1.873l-27.296-27.297s-1.053-.967-1.88-1.304c-.777-.318-2.12-.39-2.12-.39l-109.141.034c-3.375 0-4.61-.753-4.61-4.088v-12.793c0-2.966-.076-4.044-1.466-5.435l-12.496-12.496c-1.75-1.749-2.532-3.053-4.813-3.053h-23.808c-3.145 0-5.82 2.56-5.82 5.706v31.97c0 3.568-.093 4.99-2.03 6.926l-20.577 20.462s-1.05.993-1.882 1.333c-.772.315-2.104.372-2.104.372H336.082s-1.394.003-2.191-.33c-.806-.337-1.791-1.347-1.791-1.347l-30.914-30.689s-.935-1-1.273-1.786c-.372-.867-.406-2.385-.406-2.385V264.692s-.072-1.347-.388-2.13c-.316-.779-1.194-1.79-1.194-1.79l-27.327-27.328s-.982-.797-1.712-1.115c-.822-.357-2.241-.507-2.241-.507H97.654c-1.91 0-2.606.04-3.968 1.34L57.61 269.363"></path><path id="line-U8" class="line U8" d="M656.188 526.668l.001-153.3s.026-1.274.3-2.022c.332-.899 1.385-2.028 1.385-2.028l7.034-7.11s1.298-1.335 1.29-3.69c-.007-2.57-1.695-3.95-1.695-3.95L419.427 109.541c-2.75-2.989-3.375-4.782-3.375-8.706l.001-8.909c.01-2.257.358-3.36 2.32-5.322l6.062-6.018c1.615-1.615 1.983-1.818 4.21-1.797h27.114"></path><path id="line-U9" class="line U9" d="M358.199 612.627l.116-204.653s.058-1.495.433-2.348c.363-.826 1.38-1.856 1.38-1.856l43.729-43.747s.678-.885.949-1.534c.353-.842.446-2.299.446-2.299l-.12-127.87s.062-1.414.398-2.23c.322-.785 1.217-1.8 1.217-1.8l63.68-63.68"></path></g><g id="stations"><path id="station-900000089301" data-id="900000089301" class="station U6 S25 interchange" d="M315.607 89.965a1.839 1.839 0 1 1 1.124 1.694l-.594.595a1.84 1.84 0 1 1-1.001-.989l.606-.607a1.836 1.836 0 0 1-.135-.693z"></path><path id="station-900000200000" data-id="900000200000" class="station S25 interchange" d="M272.53 46.615a1.839 1.839 0 1 1 3.677 0 1.838 1.838 0 0 1-3.676 0z"></path><path id="station-900000009202" data-id="900000009202" class="station U9 U8 wifi interchange" d="M468.848 160.575a1.839 1.839 0 1 1 3.677 0 1.839 1.839 0 0 1-3.677 0z"></path><path id="station-900000009102" data-id="900000009102" class="station U9 U6 wifi interchange" d="M424.386 204.33a1.839 1.839 0 1 1 3.677-.001 1.839 1.839 0 0 1-3.677 0z"></path><path id="station-900000143001" data-id="900000143001" class="station S2 interchange" d="M695.313 66.664a1.844 1.844 0 1 1 3.688 0 1.844 1.844 0 1 1-3.688 0z"></path><path id="station-900000350160" data-id="900000350160" class="station S2 interchange" d="M746 15.734a1.844 1.844 0 1 1 3.688 0 1.844 1.844 0 1 1-3.688 0z"></path><path id="station-900000175001" data-id="900000175001" class="station S5 U5 wifi interchange" d="M956.996 355.801a1.845 1.845 0 1 1 3.69 0 1.845 1.845 0 0 1-3.69 0z"></path><path id="station-900000320004" data-id="900000320004" class="station S5 interchange" d="M1113.2 304.345a1.845 1.845 0 1 1 3.69 0 1.845 1.845 0 0 1-3.69 0z"></path><path id="station-900000170004" data-id="900000170004" class="station S7 interchange" d="M985.996 203.345a1.845 1.845 0 1 1 3.69 0 1.845 1.845 0 0 1-3.69 0z"></path><path id="station-900000152001" data-id="900000152001" class="station S7 interchange" d="M823.5 214.845a1.845 1.845 0 1 1 3.69 0 1.845 1.845 0 0 1-3.69 0z"></path><path id="station-900000171003" data-id="900000171003" class="station S7 interchange" d="M900.568 309.395a1.844 1.844 0 1 1 3.687-.003 1.844 1.844 0 0 1-3.687.003z"></path><path id="station-900000013102" data-id="900000013102" class="station U8 U1 wifi interchange" d="M654.34 422.748a1.84 1.84 0 1 1 3.679 0 1.84 1.84 0 0 1-3.68 0z"></path><path id="station-900000003201" data-id="900000003201" class="station S5 S7 S75 U55 interchange" d="M469.6 313.39a2.5 2.5 0 1 1 5 .001 2.5 2.5 0 0 1-5-.002z"></path><path id="station-900000058102" data-id="900000058102" class="station S2 S25 interchange" d="M500.553 581.374a1.838 1.838 0 1 1 3.676-.002 1.838 1.838 0 0 1-3.676.002z"></path><path id="station-900000245027" data-id="900000245027" class="station S2 interchange" d="M540 752.729a1.838 1.838 0 1 1 3.675-.003 1.838 1.838 0 0 1-3.675.003z"></path><path id="station-900000044201" data-id="900000044201" class="station U9 U7 wifi interchange" d="M356.475 492.41a1.844 1.844 0 1 1 3.688 0 1.844 1.844 0 0 1-3.688 0z"></path><path id="station-900000042101" data-id="900000042101" class="station U9 U3 wifi interchange" d="M356.506 459.073a1.845 1.845 0 1 1 3.689-.002 1.845 1.845 0 0 1-3.689.002z"></path><path id="station-900000055102" data-id="900000055102" class="station U7 U4 wifi interchange" d="M413.274 492.43a1.845 1.845 0 1 1 3.69.001 1.845 1.845 0 0 1-3.69-.001z"></path><path id="station-900000041101" data-id="900000041101" class="station U7 U3 interchange" d="M327.577 488.04a1.844 1.844 0 1 1 3.688 0 1.845 1.845 0 1 1-3.688 0z"></path><path id="station-900000024201" data-id="900000024201" class="station U7 U2 interchange" d="M297.778 360.212a1.839 1.839 0 1 1 3.677 0 1.839 1.839 0 0 1-3.677 0z"></path><path id="station-900000024106" data-id="900000024106" class="station S41 S42 S46 interchange" d="M249.29 366.39l-5.727.02c-.753-.01-1.407-.62-1.407-1.352 0-.741.584-1.366 1.325-1.366l5.822.004c.74 0 1.341.6 1.341 1.34 0 .743-.613 1.354-1.353 1.354z"></path><path id="station-900000026202" data-id="900000026202" class="station U2 wifi interchange" d="M237.5 360.212a1.839 1.839 0 1 1 3.677 0 1.839 1.839 0 0 1-3.677 0z"></path><path id="station-900000024202" data-id="900000024202" class="station U7 wifi interchange" d="M297.778 387.212a1.839 1.839 0 1 1 3.677 0 1.839 1.839 0 0 1-3.677 0z"></path><path id="station-900000024101" data-id="900000024101" class="station S5 S7 S75 interchange" d="M295.6 392.048v3.102c-.012.753-.683 1.356-1.416 1.356-.74 0-1.283-.598-1.283-1.339l.004-3.13c0-.74.601-1.342 1.343-1.342a1.36 1.36 0 0 1 1.352 1.353z"></path><path id="station-900000020202" data-id="900000020202" class="station S41 S42 interchange" d="M352.764 230.408c.742 0 1.323.61 1.323 1.35l.003 4.553a1.342 1.342 0 0 1-2.685 0l-.002-4.538c.012-.755.629-1.365 1.36-1.365z"></path><path id="station-900000023203" data-id="900000023203" class="station U9 U1 wifi interchange" d="M356.544 422.688a1.844 1.844 0 1 1 3.688 0 1.845 1.845 0 1 1-3.688 0z"></path><path id="station-900000100007" data-id="900000100007" class="station S1 S2 S25 interchange" d="M545.9 280.817a1.342 1.342 0 0 1 0 2.684h-5.192a1.344 1.344 0 1 1 .016-2.688l5.176.004z"></path><path id="station-900000020201" data-id="900000020201" class="station S41 S42 U7 wifi interchange" d="M286.749 247.738c.525.541.522 1.409.003 1.928-.524.523-1.366.503-1.891-.021l-3.967-3.854a1.342 1.342 0 1 1 1.897-1.898c.053.053 3.958 3.845 3.958 3.845z"></path><path id="station-900000078101" data-id="900000078101" class="station U8 U7 wifi interchange" d="M654.354 463.36a1.838 1.838 0 1 1 3.676-.002 1.838 1.838 0 0 1-3.676.002z"></path><path id="station-900000260001" data-id="900000260001" class="station S46 interchange" d="M993.338 682.5a1.84 1.84 0 1 1 .001 3.679 1.84 1.84 0 0 1-.001-3.679z"></path><path id="station-900000310004" data-id="900000310004" class="station S3 interchange" d="M1041.338 561a1.84 1.84 0 1 1 .001 3.679 1.84 1.84 0 0 1-.001-3.679z"></path><path id="station-900000162001" data-id="900000162001" class="station S3 interchange" d="M887.338 446.5a1.84 1.84 0 1 1 .001 3.679 1.84 1.84 0 0 1-.001-3.679z"></path><path id="station-900000012103" data-id="900000012103" class="station U6 U1 wifi interchange" d="M559.59 422.747a1.845 1.845 0 1 1 3.69 0 1.845 1.845 0 0 1-3.69 0z"></path><path id="station-900000001201" data-id="900000001201" class="station S41 S42 U9 wifi interchange" d="M403.793 231.106c.012-.754.63-1.365 1.361-1.365.743 0 1.324.61 1.324 1.35l.075 5.417a1.342 1.342 0 1 1-2.685 0c0-.074-.075-5.402-.075-5.402z"></path><path id="station-900000009104" data-id="900000009104" class="station S41 S42 U6 wifi interchange" d="M452.318 230.52c.524-.523 1.366-.503 1.89.022l4.779 4.778a1.343 1.343 0 0 1-1.897 1.899l-4.77-4.77c-.524-.541-.521-1.41-.002-1.928z"></path><path id="station-900000007104" data-id="900000007104" class="station S1 S2 S25 interchange" d="M545.9 263.8a1.342 1.342 0 0 1 0 2.683h-5.192a1.344 1.344 0 0 1 .016-2.687l5.176.004z"></path><path id="station-900000008101" data-id="900000008101" class="station S1 S2 S25 interchange" d="M545.9 249.239a1.343 1.343 0 0 1 0 2.684h-5.192a1.346 1.346 0 0 1-1.326-1.346c0-.741.601-1.342 1.342-1.342l5.176.004z"></path><path id="station-900000077106" data-id="900000077106" class="station S41 S42 interchange" d="M748.129 507.14a1.342 1.342 0 0 1-1.898 1.898l-2.11-2.11a1.347 1.347 0 0 1 .014-1.89 1.342 1.342 0 0 1 1.898 0l2.096 2.102z"></path><path id="station-900000086102" data-id="900000086102" class="station U6 wifi interchange" d="M362.217 141.882a1.839 1.839 0 1 1 3.677-.001 1.839 1.839 0 0 1-3.677.001z"></path><path id="station-900000200005" data-id="900000200005" class="station S1 interchange" d="M383.5 7.339a1.839 1.839 0 1 1 3.677-.001 1.839 1.839 0 0 1-3.677.001z"></path><path id="station-900000018101" data-id="900000018101" class="station U7 interchange" d="M272.5 237.339a1.839 1.839 0 1 1 3.677-.001 1.839 1.839 0 0 1-3.677.001z"></path><path id="station-900000029302" data-id="900000029302" class="station U7 interchange" d="M56.1 269.19a1.839 1.839 0 1 1 3.677 0 1.839 1.839 0 0 1-3.677 0z"></path><path id="station-900000029101" data-id="900000029101" class="station S5 interchange" d="M50.7 274.39a1.839 1.839 0 1 1 3.677 0 1.839 1.839 0 0 1-3.677 0z"></path><path id="station-900000062202" data-id="900000062202" class="station S1 U9 interchange" d="M356.543 612.788a1.839 1.839 0 1 1 3.677-.001 1.839 1.839 0 0 1-3.678 0z"></path><path id="station-900000057103" data-id="900000057103" class="station S1 S2 S25 U7 wifi interchange" d="M500.844 481.944c-.128.254-.246.589-.246.893a1.886 1.886 0 1 0 1.887-1.887c-.36 0-.64.125-.927.299l-1.153-1.146c.171-.284.283-.6.283-.956a1.888 1.888 0 0 0-1.888-1.887c-.856 0-1.514.523-1.743 1.305h-2.479a1.888 1.888 0 0 0-3.689.56c0 1.043.845 1.887 1.887 1.887.867 0 1.564-.584 1.785-1.381l2.44.013c.181.853.893 1.39 1.8 1.39.325 0 .627-.086.9-.232l1.143 1.142z"></path><path id="station-900000012101" data-id="900000012101" class="station S1 S2 S25 interchange" d="M502.67 399.47c.754.01 1.357.681 1.357 1.414 0 .741-.598 1.283-1.339 1.283l-2.985-.004a1.342 1.342 0 0 1 0-2.684l2.967-.01z"></path><path id="station-900000100020" data-id="900000100020" class="station S1 S2 S25 U2 wifi interchange" d="M502.67 377.448c.754.01 1.357.682 1.357 1.415 0 .74-.598 1.283-1.339 1.283l-6.013-.005a1.341 1.341 0 1 1 0-2.683l5.995-.01z"></path><path id="station-900000100002" data-id="900000100002" class="station S5 S7 S75 interchange" d="M579.043 312.087v2.938c-.012.753-.682 1.357-1.415 1.357-.741 0-1.283-.599-1.283-1.34l.004-2.966c.001-.74.6-1.342 1.342-1.342a1.36 1.36 0 0 1 1.352 1.353z"></path><path id="station-900000100025" data-id="900000100025" class="station S1 S2 S25 U55 interchange" d="M499.733 351.492h2.96c.754.012 1.343.598 1.343 1.33 0 .74-.584 1.368-1.326 1.368l-2.99-.004c-.74 0-1.341-.6-1.341-1.342 0-.741.613-1.352 1.354-1.352z"></path><path id="station-900000100001" data-id="900000100001" class="station S1 S2 S25 S5 S7 S75 U6 wifi interchange" d="M538.294 314.882c-.022 1.508-1.363 2.715-2.83 2.715-1.48 0-2.566-1.198-2.566-2.68l.008-3.024a2.684 2.684 0 0 1 2.684-2.684 2.721 2.721 0 0 1 2.705 2.706v2.967z"></path><path id="station-900000100003" data-id="900000100003" class="station S5 S7 S75 U8 U5 U2 wifi interchange" d="M637.412 336.312c-.54.526-1.443.478-1.96-.041-.525-.524-.486-1.33.04-1.854l6.93-6.924a1.34 1.34 0 0 1 1.897 0 1.36 1.36 0 0 1 0 1.913l-6.907 6.906z"></path><path id="station-900000003102" data-id="900000003102" class="station S5 S7 S75 interchange" d="M423.745 326.467l2.369 2.37c.526.541.478 1.442-.041 1.96-.524.524-1.33.484-1.854-.04l-2.387-2.393a1.34 1.34 0 0 1 0-1.897 1.361 1.361 0 0 1 1.913 0z"></path><path id="station-900000100004" data-id="900000100004" class="station S5 S7 S75 U8 interchange" d="M667.514 361.456l-2.336 2.335c-.542.525-1.442.478-1.961-.04-.523-.525-.484-1.33.04-1.855l2.359-2.353a1.344 1.344 0 0 1 1.898 0c.523.524.522 1.39 0 1.913z"></path><path id="station-900000120005" data-id="900000120005" class="station S5 S7 S75 interchange" d="M683.672 382.265c-.542.525-1.442.477-1.962-.04-.522-.525-.483-1.33.043-1.856l2.41-2.405a1.344 1.344 0 0 1 1.898 0c.522.524.522 1.39 0 1.913l-2.39 2.388z"></path><path id="station-900000003103" data-id="900000003103" class="station S5 S7 S75 interchange" d="M388.953 361.548l2.053 2.053c.525.541.477 1.442-.041 1.961-.525.523-1.33.483-1.855-.04l-2.07-2.076a1.345 1.345 0 0 1 0-1.899 1.361 1.361 0 0 1 1.913.001z"></path><path id="station-900000023201" data-id="900000023201" class="station S5 S7 S75 U9 U2 wifi interchange" d="M361.93 388.695l6.82 6.82c.526.542.477 1.444-.04 1.962-.525.524-1.33.485-1.855-.04l-6.839-6.845a1.341 1.341 0 0 1 0-1.897 1.361 1.361 0 0 1 1.913 0z"></path><path id="station-900000024203" data-id="900000024203" class="station S5 S7 S75 interchange" d="M330.594 392.048v3.102c-.012.753-.683 1.356-1.416 1.356-.74 0-1.283-.598-1.283-1.339l.004-3.13c0-.74.601-1.342 1.343-1.342a1.36 1.36 0 0 1 1.352 1.353z"></path><path id="station-900000040101" data-id="900000040101" class="station S41 S42 S46 interchange" d="M249.29 428.816l-5.727.02c-.753-.01-1.407-.62-1.407-1.352 0-.741.584-1.366 1.325-1.366l5.822.004c.74 0 1.341.6 1.341 1.34 0 .743-.613 1.354-1.353 1.354z"></path><path id="station-900000044101" data-id="900000044101" class="station S41 S42 S46 interchange" d="M258.437 489.357l-4.298 4.328c-.541.526-1.434.556-1.953.038-.523-.524-.553-1.38-.028-1.903l4.382-4.376a1.34 1.34 0 0 1 1.897 0 1.36 1.36 0 0 1 0 1.913z"></path><path id="station-900000045102" data-id="900000045102" class="station S41 S42 S46 wifi interchange" d="M295.638 524.072l-5.558 5.588c-.542.525-1.435.557-1.953.038-.524-.524-.553-1.38-.029-1.903l5.643-5.636a1.34 1.34 0 0 1 1.897 0 1.36 1.36 0 0 1 0 1.913z"></path><path id="station-900000058101" data-id="900000058101" class="station S2 S25 S41 S42 S45 S46 interchange" d="M506.903 524.087l-.001 5.844c-.021 1.508-1.363 2.715-2.83 2.715-1.481 0-2.565-1.198-2.565-2.68l.007-5.9a2.684 2.684 0 0 1 2.684-2.685 2.721 2.721 0 0 1 2.705 2.706z"></path><path id="station-900000054104" data-id="900000054104" class="station S1 S41 S42 S45 S46 interchange" d="M449.472 524.132l-7.6 7.63c-.54.525-1.434.556-1.952.038-.524-.525-.553-1.38-.029-1.903l7.683-7.678a1.342 1.342 0 0 1 1.898 0 1.36 1.36 0 0 1 0 1.913z"></path><path id="station-900000044202" data-id="900000044202" class="station S41 S42 S45 S46 U9 wifi interchange" d="M359.606 524.097l.021 5.934c-.01.753-.621 1.407-1.354 1.407-.741 0-1.366-.585-1.366-1.326l.005-6.026c0-.741.6-1.342 1.341-1.342.742 0 1.353.613 1.353 1.353z"></path><path id="station-900000054105" data-id="900000054105" class="station S41 S42 S45 S46 U4 wifi interchange" d="M416.472 524.097l.021 5.934c-.01.753-.62 1.407-1.354 1.407-.74 0-1.366-.585-1.366-1.326l.005-6.026c0-.741.6-1.342 1.341-1.342.742 0 1.353.613 1.353 1.353z"></path><path id="station-900000068201" data-id="900000068201" class="station S41 S42 S45 S46 U6 wifi interchange" d="M562.733 523.674l.023 5.934c-.012.754-.622 1.407-1.354 1.407-.742 0-1.367-.585-1.367-1.326l.004-6.026c0-.74.602-1.34 1.342-1.34a1.36 1.36 0 0 1 1.352 1.351z"></path><path id="station-900000079221" data-id="900000079221" class="station S41 S42 S45 S46 S47 U8 interchange" d="M657.531 524.097l.02 5.934c-.01.753-.62 1.407-1.354 1.407-.74 0-1.366-.585-1.366-1.326l.004-6.026a1.343 1.343 0 0 1 1.342-1.342c.742 0 1.354.613 1.354 1.353z"></path><path id="station-900000078201" data-id="900000078201" class="station S41 S42 S45 S46 S47 U7 wifi interchange" d="M706.234 524.097l.021 5.934c-.009.753-.62 1.407-1.353 1.407-.74 0-1.366-.585-1.366-1.326l.004-6.026c0-.741.6-1.342 1.342-1.342a1.36 1.36 0 0 1 1.352 1.353z"></path><path id="station-900000190001" data-id="900000190001" class="station S8 S85 S9 S41 S42 interchange" d="M789.09 455.862a1.343 1.343 0 1 1 0 2.684h-9.156a1.344 1.344 0 0 1 .015-2.688l9.14.004z"></path><path id="station-900000120001" data-id="900000120001" class="station S8 S85 S9 S41 S42 U5 wifi interchange" d="M789.09 375.783a1.343 1.343 0 1 1 0 2.684h-9.156a1.344 1.344 0 0 1 .015-2.688l9.14.004z"></path><path id="station-900000110012" data-id="900000110012" class="station S8 S85 S9 S41 S42 interchange" d="M789.09 343.887c.742 0 1.344.601 1.344 1.342 0 .741-.602 1.342-1.344 1.342h-9.156a1.344 1.344 0 0 1 .015-2.688l9.14.004z"></path><path id="station-900000110004" data-id="900000110004" class="station S8 S85 S9 S41 S42 interchange" d="M789.09 307.85a1.343 1.343 0 0 1 0 2.684l-9.156.002a1.346 1.346 0 0 1 .015-2.69l9.14.005z"></path><path id="station-900000120003" data-id="900000120003" class="station S3 S5 S7 S75 S8 S85 S9 S41 S42 interchange" d="M792.19 409.52l-12.061-.001c-2.28-.033-4.15-1.778-4.15-3.995 0-2.241 1.856-4.164 4.097-4.164l12.147.013a4.06 4.06 0 0 1 4.059 4.058c0 2.24-1.852 4.09-4.092 4.09z"></path><path id="station-900000110003" data-id="900000110003" class="station S8 S85 S9 S41 S42 interchange" d="M746.508 243.328a1.342 1.342 0 0 1 1.898 1.898l-6.474 6.475a1.344 1.344 0 0 1-1.89-1.912l6.466-6.462z"></path><path id="station-900000110002" data-id="900000110002" class="station S8 S85 S9 S41 S42 interchange" d="M702.533 226.635a1.343 1.343 0 0 1 2.684 0l.002 9.156a1.348 1.348 0 0 1-1.348 1.327c-.74 0-1.342-.6-1.342-1.34l.004-9.143z"></path><path id="station-900000110001" data-id="900000110001" class="station S8 S85 S9 S41 S42 U2 wifi interchange" d="M618.285 226.635a1.342 1.342 0 1 1 2.684 0v9.156a1.346 1.346 0 0 1-1.346 1.327 1.34 1.34 0 0 1-1.342-1.34l.004-9.143z"></path><path id="station-900000110011" data-id="900000110011" class="station S1 S2 S25 S8 S85 S9 interchange" d="M562.91 196.579a1.342 1.342 0 0 1 1.898-1.898l6.474 6.475a1.344 1.344 0 0 1-1.91 1.89l-6.462-6.468z"></path><path id="station-900000007102" data-id="900000007102" class="station S2 S2 S25 S41 S42 U8 interchange" d="M540.786 230.314a1.34 1.34 0 0 1 1.898 0l4.015 4.013a1.345 1.345 0 1 1-1.913 1.89l-4-4.006a1.343 1.343 0 0 1 0-1.897z"></path><path id="station-900000130002" data-id="900000130002" class="station S2 S8 S9 U2 wifi interchange" d="M613.773 149.729a1.342 1.342 0 0 1 1.898-1.898l4.498 4.498a1.347 1.347 0 0 1-.013 1.889 1.342 1.342 0 0 1-1.899 0l-4.484-4.49z"></path><path id="station-900000130001" data-id="900000130001" class="station S2 S8 interchange" d="M645.498 117.92a1.342 1.342 0 0 1 1.898-1.899l2.358 2.358a1.344 1.344 0 0 1-1.91 1.89l-2.346-2.35z"></path><path id="station-900000142001" data-id="900000142001" class="station S2 S8 interchange" d="M665.035 98.515a1.342 1.342 0 0 1 1.898-1.898l2.273 2.272a1.346 1.346 0 0 1-.013 1.89 1.342 1.342 0 0 1-1.898 0l-2.26-2.264z"></path><path id="station-900000130003" data-id="900000130003" class="station S1 S25 S85 interchange" d="M542.165 164.63a1.342 1.342 0 0 1-1.898-1.898l4.729-4.73a1.345 1.345 0 0 1 1.89 1.912l-4.721 4.716z"></path><path id="station-900000085201" data-id="900000085201" class="station S1 S25 S85 interchange" d="M491.736 114.121a1.342 1.342 0 0 1-1.897-1.897l4.728-4.73a1.345 1.345 0 0 1 1.89 1.911l-4.721 4.716z"></path><path id="station-900000084101" data-id="900000084101" class="station S1 S85 interchange" d="M470.156 92.475a1.342 1.342 0 1 1-1.897-1.898l2.285-2.286a1.345 1.345 0 0 1 1.888.014 1.34 1.34 0 0 1 0 1.897l-2.276 2.273z"></path><path id="station-900000096101" data-id="900000096101" class="station S1 S85 U8 wifi interchange" d="M456.625 79.242a1.342 1.342 0 0 1-1.898-1.898l2.286-2.286a1.346 1.346 0 0 1 1.889.014 1.342 1.342 0 0 1 0 1.9l-2.277 2.27z"></path><path id="station-900000094101" data-id="900000094101" class="station S1 S85 interchange" d="M446.975 69.657a1.342 1.342 0 0 1-1.898-1.898l2.286-2.286a1.345 1.345 0 0 1 1.89.014 1.34 1.34 0 0 1 0 1.898l-2.278 2.272z"></path><path id="station-900000200009" data-id="900000200009" class="station S1 S8 interchange" d="M419.993 42.622a1.342 1.342 0 0 1-1.898-1.897l2.285-2.287a1.345 1.345 0 1 1 1.89 1.913l-2.277 2.271z"></path><path id="station-900000200008" data-id="900000200008" class="station S1 S8 interchange" d="M406.481 30.633a1.34 1.34 0 0 1 0-1.898l2.088-2.09a1.344 1.344 0 1 1 1.89 1.912l-2.08 2.076a1.343 1.343 0 0 1-1.898 0z"></path><path id="station-900000017104" data-id="900000017104" class="station U7 U1 wifi interchange" d="M527.595 425.86c-.01.755-.617 1.358-1.349 1.358a1.346 1.346 0 0 1-1.349-1.34l.004-3.412a1.342 1.342 0 0 1 2.683 0l.011 3.395z"></path><path id="station-900000017101" data-id="900000017101" class="station U7 U6 wifi interchange" d="M561.01 456.581l-2.953.022c-.755-.01-1.408-.622-1.408-1.355 0-.74.586-1.366 1.326-1.366l3.047.005c.74 0 1.342.6 1.342 1.341a1.36 1.36 0 0 1-1.353 1.353z"></path><path id="station-900000096458" data-id="900000096458" class="station S25 U8 wifi interchange" d="M412.932 101.627l2.416-2.46c.26.14.55.252.863.252a1.838 1.838 0 1 0-1.839-1.839c0 .315.054.608.203.866l-2.385 2.417a1.795 1.795 0 0 0-.883-.23 1.838 1.838 0 1 0 1.839 1.839c0-.306-.093-.59-.214-.845z"></path><path id="station-900000191002" data-id="900000191002" class="station S8 S85 S9 interchange" d="M812.455 498.623a1.342 1.342 0 0 1-1.898-1.897l2.11-2.11a1.346 1.346 0 0 1 1.888.013 1.34 1.34 0 0 1 0 1.898l-2.1 2.096z"></path><path id="station-900000191001" data-id="900000191001" class="station S8 S85 S9 S45 S46 S47 interchange" d="M846.065 536.391a1.342 1.342 0 1 1-1.897-1.898l.464-.464 3.937-3.938a1.345 1.345 0 0 1 2.284.961c0 .343-.131.687-.394.95l-4.394 4.39z"></path><path id="station-900000193001" data-id="900000193001" class="station S8 S85 S9 S45 S46 S47 interchange" d="M883.969 574.353a1.342 1.342 0 0 1-1.898-1.898l4.263-4.264a1.345 1.345 0 0 1 1.89 1.912l-4.255 4.25z"></path><path id="station-900000193002" data-id="900000193002" class="station S8 S85 S9 S45 S46 S47 interchange" d="M899.168 589.463a1.343 1.343 0 0 1-1.899-1.897l4.139-4.139a1.344 1.344 0 0 1 1.889 1.911l-4.129 4.125z"></path><path id="station-900000192001" data-id="900000192001" class="station S8 S85 S9 S45 S46 S47 interchange" d="M859.21 553.795a1.344 1.344 0 0 1-1.898-1.899l7.044-7.043a1.345 1.345 0 0 1 1.888.014 1.339 1.339 0 0 1 0 1.898l-7.034 7.03z"></path><path id="station-900000186001" data-id="900000186001" class="station S8 S85 S46 interchange" d="M930.965 621.517a1.34 1.34 0 0 1-1.896 0 1.337 1.337 0 0 1 0-1.897l2.18-2.182a1.345 1.345 0 0 1 1.89 1.911l-2.174 2.168z"></path><path id="station-900000260004" data-id="900000260004" class="station S8 S46 interchange" d="M957.657 648.157a1.341 1.341 0 1 1-1.897-1.897l2.117-2.12a1.345 1.345 0 1 1 1.89 1.913l-2.11 2.104z"></path><path id="station-900000260003" data-id="900000260003" class="station S8 S46 interchange" d="M969.73 660.188a1.342 1.342 0 1 1-1.899-1.897l2.11-2.111a1.346 1.346 0 0 1 1.89.014 1.34 1.34 0 0 1 0 1.898l-2.1 2.096z"></path><path id="station-900000195510" data-id="900000195510" class="station S9 S45 interchange" d="M893.72 645.826a1.342 1.342 0 1 1 1.898-1.898l2.119 2.119a1.346 1.346 0 0 1-.014 1.888 1.342 1.342 0 0 1-1.9 0l-2.103-2.11z"></path><path id="station-900000196001" data-id="900000196001" class="station S9 S45 interchange" d="M874.492 664.899a1.342 1.342 0 1 1 1.897-1.898l2.12 2.119a1.344 1.344 0 0 1-1.912 1.889l-2.105-2.11z"></path><path id="station-900000260005" data-id="900000260005" class="station S9 S45 interchange" d="M805.794 732.393a1.341 1.341 0 0 1 1.897 0l1.812 1.812a1.345 1.345 0 0 1-1.912 1.89l-1.797-1.804a1.34 1.34 0 0 1 0-1.898z"></path><path id="station-900000160003" data-id="900000160003" class="station S5 S7 S75 interchange" d="M818.202 397.456a1.341 1.341 0 1 1 1.897-1.897l2.11 2.11a1.344 1.344 0 0 1-1.91 1.89l-2.097-2.103z"></path><path id="station-900000160004" data-id="900000160004" class="station S5 S7 S75 U5 wifi interchange" d="M834.908 378.605a1.342 1.342 0 0 1 0-2.684l9.073-.001a1.347 1.347 0 0 1 1.327 1.347c0 .74-.6 1.342-1.342 1.342l-9.058-.004z"></path><path id="station-900000171002" data-id="900000171002" class="station S5 S7 S75 interchange" d="M874.76 355.71a1.343 1.343 0 0 1 2.685 0v2.983a1.344 1.344 0 1 1-2.688-.015l.003-2.968z"></path><path id="station-900000052201" data-id="900000052201" class="station S1 S7 interchange" d="M119.313 660.79l-2.104-2.073c-.525-.54-.556-1.435-.038-1.953.525-.525 1.379-.553 1.904-.029l2.151 2.158a1.341 1.341 0 0 1 0 1.897 1.36 1.36 0 0 1-1.913 0z"></path><path id="station-900000053301" data-id="900000053301" class="station S1 S7 interchange" d="M103.693 672.37c-.526-.54-.556-1.434-.039-1.953.525-.524 1.38-.552 1.904-.028l2.15 2.155a1.342 1.342 0 0 1 0 1.898 1.36 1.36 0 0 1-1.913 0l-2.102-2.071z"></path><path id="station-900000100011" data-id="900000100011" class="station U6 U2 wifi interchange" d="M562.896 382.853l2.417-2.46c.258.139.547.252.86.252a1.84 1.84 0 1 0-1.837-1.84c0 .315.053.608.203.867l-2.386 2.416a1.795 1.795 0 0 0-.882-.23 1.84 1.84 0 1 0 1.839 1.84 1.97 1.97 0 0 0-.214-.845z"></path><path id="station-900000026207" data-id="900000026207" class="station S41 S42 S46 interchange" d="M249.514 314.198l-6.066.02c-.754-.01-1.408-.62-1.408-1.353 0-.74.585-1.365 1.326-1.365l6.16.004c.74 0 1.342.6 1.342 1.34 0 .743-.613 1.354-1.354 1.354z"></path><path id="station-900000024102" data-id="900000024102" class="station S5 S7 S75 S41 S42 interchange" d="M243.624 390.912l5.844.002c1.508.02 2.715 1.363 2.715 2.83 0 1.482-1.198 2.566-2.68 2.566l-5.9-.009a2.685 2.685 0 0 1-2.686-2.683 2.721 2.721 0 0 1 2.707-2.706z"></path><path id="station-900000083201" data-id="900000083201" class="station U7 wifi interchange" d="M758.059 686.363a1.838 1.838 0 1 1 3.676 0 1.838 1.838 0 1 1-3.676 0z"></path><path id="station-900000017103" data-id="900000017103" class="station U2 U1 wifi interchange" d="M470.763 422.747a1.844 1.844 0 1 1 3.688 0 1.845 1.845 0 1 1-3.688 0z"></path><path id="station-900000230003" data-id="900000230003" class="station S7 interchange" d="M62 701.734a1.844 1.844 0 1 1 3.688 0 1.845 1.845 0 1 1-3.688 0z"></path><path id="station-900000230999" data-id="900000230999" class="station S7 interchange" d="M19 701.734a1.844 1.844 0 1 1 3.688 0 1.845 1.845 0 1 1-3.688 0z"></path><path id="station-900000064301" data-id="900000064301" class="station S25 interchange" d="M438 656.844a1.844 1.844 0 1 1 3.688 0 1.845 1.845 0 1 1-3.688 0z"></path><path id="station-900000056101" data-id="900000056101" class="station U3 U2 U1 wifi interchange" d="M412.554 422.58l.005 5.963c-.01.754-.682 1.358-1.415 1.358-.74 0-1.283-.6-1.283-1.34v-5.992c0-.741.6-1.342 1.341-1.342s1.352.613 1.352 1.354z"></path><path id="station-900000056102" data-id="900000056102" class="station U4 U3 U2 U1 wifi interchange" d="M436.66 422.58l.005 9.066c-.012.755-.683 1.357-1.416 1.357-.74 0-1.283-.598-1.282-1.34l-.001-9.093c0-.741.6-1.343 1.34-1.343.743 0 1.354.613 1.354 1.354z"></path><path id="station-900000120004" data-id="900000120004" class="station S5 S7 S75 U1 interchange" d="M704.816 398.634l-2.252 2.253c-.542.525-1.443.477-1.96-.04-.524-.524-.485-1.33.038-1.855l2.276-2.27a1.344 1.344 0 0 1 1.898 0c.525.523.525 1.39 0 1.912z"></path><path id="station-900000230000" data-id="900000230000" class="station S7" d="M41 701.7V698.7"></path><path id="station-900000170005" data-id="900000170005" class="station S7" d="M913.3 282.6L911.2 280.5"></path><path id="station-900000170002" data-id="900000170002" class="station S7" d="M951.4 240.4L953.6 242.6"></path><path id="station-900000170003" data-id="900000170003" class="station S7" d="M974.2 218L976.3 220.2"></path><path id="station-900000152002" data-id="900000152002" class="station S7" d="M855.8 240.9L853.6 243"></path><path id="station-900000170001" data-id="900000170001" class="station S7" d="M934.3 261.6L932.1 259.5"></path><path id="station-900000048101" data-id="900000048101" class="station S7" d="M154.2 444.8L156.6 447.2"></path><path id="station-900000030202" data-id="900000030202" class="station S5" d="M79 295L81 293L79 295z"></path><path id="station-900000025424" data-id="900000025424" class="station S5" d="M104 320L101.8 322.2"></path><path id="station-900000025321" data-id="900000025321" class="station S5" d="M129.3 345.4L127.1 347.5"></path><path id="station-900000026105" data-id="900000026105" class="station S5" d="M150.7 366.7L148.5 368.9"></path><path id="station-900000025423" data-id="900000025423" class="station S5" d="M193 389.1V392.1"></path><path id="station-900000171001" data-id="900000171001" class="station S5" d="M929.3 359V356"></path><path id="station-900000175002" data-id="900000175002" class="station S5" d="M1001.5 358.7V355.7"></path><path id="station-900000320026" data-id="900000320026" class="station S5" d="M1066 358.7V355.7"></path><path id="station-900000320006" data-id="900000320006" class="station S5" d="M1105 333.1L1107.3 335.3"></path><path id="station-900000320007" data-id="900000320007" class="station S5" d="M1094.7 343.7L1096.9 345.8"></path><path id="station-900000320008" data-id="900000320008" class="station S5" d="M1084.7 358.6V355.5"></path><path id="station-900000176001" data-id="900000176001" class="station S5" d="M1032.3 358.6V355.5"></path><path id="station-900000320003" data-id="900000320003" class="station S5" d="M1112 255.4H1115"></path><path id="station-900000320002" data-id="900000320002" class="station S5" d="M1112 241.7H1115"></path><path id="station-900000320001" data-id="900000320001" class="station S5" d="M1112 230H1115"></path><path id="station-900000320005" data-id="900000320005" class="station S5" d="M1112 319.6H1115.1"></path><path id="station-900000260002" data-id="900000260002" class="station S46" d="M980.3 667L978.2 669"></path><path id="station-900000192002" data-id="900000192002" class="station S47" d="M894.1 557.2V554.2"></path><path id="station-900000077155" data-id="900000077155" class="station S47 S46" d="M784 529.7V526.7"></path><path id="station-900000023301" data-id="900000023301" class="station U1 wifi" d="M341.5 420V422.7"></path><path id="station-900000014102" data-id="900000014102" class="station U1" d="M688.7 417.2L686.5 415.1"></path><path id="station-900000013103" data-id="900000013103" class="station U1" d="M603.3 422.7V419.6"></path><path id="station-900000005201" data-id="900000005201" class="station U1 wifi" d="M452 419.7V422.7"></path><path id="station-900000014101" data-id="900000014101" class="station U1 wifi" d="M671.2 425.7V422.6"></path><path id="station-900000023202" data-id="900000023202" class="station U3 wifi" d="M375.7 445.2L373.6 443"></path><path id="station-900000043101" data-id="900000043101" class="station U3 wifi" d="M340.8 472L343 474.2"></path><path id="station-900000045101" data-id="900000045101" class="station U3 wifi" d="M275.2 538.6L277.3 540.7"></path><path id="station-900000051202" data-id="900000051202" class="station U3 wifi" d="M265 548.8L267 550.8"></path><path id="station-900000051302" data-id="900000051302" class="station U3 wifi" d="M253.8 560.3L255.5 562"></path><path id="station-900000051303" data-id="900000051303" class="station U3 wifi" d="M240.8 572.3L243 574.5"></path><path id="station-900000051201" data-id="900000051201" class="station U3 wifi" d="M227.8 585L230 587.2"></path><path id="station-900000051301" data-id="900000051301" class="station U3" d="M215.8 597L218 599.2"></path><path id="station-900000050282" data-id="900000050282" class="station U3" d="M203.8 610L206 612.2"></path><path id="station-900000110005" data-id="900000110005" class="station U2" d="M622.2 269.2H619"></path><path id="station-900000100015" data-id="900000100015" class="station U2 wifi" d="M640.6 359.7L642.8 361.9"></path><path id="station-900000100014" data-id="900000100014" class="station U2 wifi" d="M626.3 374.1L628.5 376.3"></path><path id="station-900000100010" data-id="900000100010" class="station U2 wifi" d="M527.7 376.4V379.4"></path><path id="station-900000100013" data-id="900000100013" class="station U2 wifi" d="M610.9 382V378.9"></path><path id="station-900000110006" data-id="900000110006" class="station U2" d="M622.2 251.8H619"></path><path id="station-900000100016" data-id="900000100016" class="station U2 wifi" d="M622.3 287H619.3"></path><path id="station-900000130011" data-id="900000130011" class="station U2 wifi" d="M622.2 185.8H619"></path><path id="station-900000005252" data-id="900000005252" class="station U2" d="M481 392.6H484"></path><path id="station-900000100012" data-id="900000100012" class="station U2 wifi" d="M580.4 382V378.9"></path><path id="station-900000022101" data-id="900000022101" class="station U2 wifi" d="M273.4 357.4V360.4"></path><path id="station-900000022201" data-id="900000022201" class="station U2 wifi" d="M316 359.8V362.9"></path><path id="station-900000025203" data-id="900000025203" class="station U2" d="M159.7 321.1L157.5 323.3"></path><path id="station-900000026201" data-id="900000026201" class="station U2" d="M203 360.3V363.3"></path><path id="station-900000026101" data-id="900000026101" class="station U2 wifi" d="M182.1 339.2L179.9 341.4"></path><path id="station-900000056104" data-id="900000056104" class="station U2 wifi" d="M458.2 432.3V429.3"></path><path id="station-900000025202" data-id="900000025202" class="station U2" d="M139.6 300.6L137.2 303"></path><path id="station-900000023101" data-id="900000023101" class="station U2 wifi" d="M343 372L345.2 369.8"></path><path id="station-900000055101" data-id="900000055101" class="station U4 wifi" d="M411.8 461.8H415.3"></path><path id="station-900000054101" data-id="900000054101" class="station U4 wifi" d="M412 508H415.6"></path><path id="station-900000120009" data-id="900000120009" class="station U5 wifi" d="M734.5 370.3L736.7 367.9"></path><path id="station-900000100017" data-id="900000100017" class="station U5" d="M694.5 326.2L692.3 328.3"></path><path id="station-900000120025" data-id="900000120025" class="station U5 wifi" d="M713.6 349.5L715.8 347.4"></path><path id="station-900000160005" data-id="900000160005" class="station U5 wifi" d="M810.7 374.3V377.3"></path><path id="station-900000171005" data-id="900000171005" class="station U5 wifi" d="M922.6 396.1L920.4 394"></path><path id="station-900000175006" data-id="900000175006" class="station U5 wifi" d="M1008 310.7L1005.9 308.5"></path><path id="station-900000175005" data-id="900000175005" class="station U5" d="M993.1 325.9L990.9 323.7"></path><path id="station-900000175004" data-id="900000175004" class="station U5 wifi" d="M976.9 342L974.7 339.8"></path><path id="station-900000171006" data-id="900000171006" class="station U5" d="M940 379.2L937.8 377.1"></path><path id="station-900000161512" data-id="900000161512" class="station U5 wifi" d="M862.3 374.5V377.5"></path><path id="station-900000175015" data-id="900000175015" class="station U5" d="M1039.1 279.8L1037 277.7"></path><path id="station-900000175007" data-id="900000175007" class="station U5 wifi" d="M1023.8 294.4L1021.7 292.3"></path><path id="station-900000120008" data-id="900000120008" class="station U5" d="M723.6 359.7L725.8 357.5"></path><path id="station-900000161002" data-id="900000161002" class="station U5 wifi" d="M902.8 397.8L900.6 400"></path><path id="station-900000120006" data-id="900000120006" class="station U5 wifi" d="M704.8 336.3L702.6 338.5"></path><path id="station-900000175010" data-id="900000175010" class="station U5" d="M1052 266.6L1050 264.5"></path><path id="station-900000003254" data-id="900000003254" class="station U55" d="M476.2 333L478.4 330.7"></path><path id="station-900000088201" data-id="900000088201" class="station U6" d="M329.6 111.8L331.8 109.7"></path><path id="station-900000086101" data-id="900000086101" class="station U6" d="M339 121.4L341.2 119.3"></path><path id="station-900000087101" data-id="900000087101" class="station U6" d="M350.6 132.2L352.8 130"></path><path id="station-900000011101" data-id="900000011101" class="station U6 wifi" d="M391.2 169.2L389 171.3"></path><path id="station-900000017102" data-id="900000017102" class="station U6 wifi" d="M561 484.2H564.1"></path><path id="station-900000068101" data-id="900000068101" class="station U6 wifi" d="M561.2 502.8H564.2"></path><path id="station-900000070101" data-id="900000070101" class="station U6 wifi" d="M564.3 580.8H561.3"></path><path id="station-900000069271" data-id="900000069271" class="station U6 wifi" d="M564.3 568.1H561.3"></path><path id="station-900000068302" data-id="900000068302" class="station U6 wifi" d="M564.3 554.4H561.3"></path><path id="station-900000011102" data-id="900000011102" class="station U6 wifi" d="M376 158.5L378.2 156.3"></path><path id="station-900000009103" data-id="900000009103" class="station U6 wifi" d="M407 185.2L404.8 187.3"></path><path id="station-900000008102" data-id="900000008102" class="station U6 wifi" d="M466 243.4L463.9 245.5"></path><path id="station-900000100501" data-id="900000100501" class="station U6" d="M482.1 259.8L480 262"></path><path id="station-900000100009" data-id="900000100009" class="station U6 wifi" d="M499.3 277L497 279"></path><path id="station-900000100019" data-id="900000100019" class="station U6 wifi" d="M519.4 296.8L517.2 299"></path><path id="station-900000012102" data-id="900000012102" class="station U6 wifi" d="M564.3 403.2H561.3"></path><path id="station-900000068202" data-id="900000068202" class="station U6 wifi" d="M564.3 539.4H561.3"></path><path id="station-900000100027" data-id="900000100027" class="station U6 wifi" d="M561.3 364.2H558.3"></path><path id="station-900000070301" data-id="900000070301" class="station U6 wifi" d="M564.1 593.3H561.3"></path><path id="station-900000088202" data-id="900000088202" class="station U6" d="M321 103.2L323.2 101.1"></path><path id="station-900000022202" data-id="900000022202" class="station U7" d="M299 328.8H302"></path><path id="station-900000023302" data-id="900000023302" class="station U7 wifi" d="M296 430H299"></path><path id="station-900000083101" data-id="900000083101" class="station U7" d="M745.7 672.1L747.8 670"></path><path id="station-900000083102" data-id="900000083102" class="station U7 wifi" d="M731.6 658.2L733.8 656"></path><path id="station-900000082201" data-id="900000082201" class="station U7 wifi" d="M715.4 641.9L717.6 639.8"></path><path id="station-900000080201" data-id="900000080201" class="station U7 wifi" d="M708.4 561H705.4"></path><path id="station-900000078102" data-id="900000078102" class="station U7 wifi" d="M694.4 479.4L692.2 481.6"></path><path id="station-900000016202" data-id="900000016202" class="station U7 wifi" d="M626.4 463.3V466.3"></path><path id="station-900000016101" data-id="900000016101" class="station U7 wifi" d="M587 463.4V466.4"></path><path id="station-900000054102" data-id="900000054102" class="station U7 wifi" d="M459.9 490V493"></path><path id="station-900000054103" data-id="900000054103" class="station U7 wifi" d="M436.7 495.3V492.3"></path><path id="station-900000041102" data-id="900000041102" class="station U7 wifi" d="M342.2 492.4V495.4"></path><path id="station-900000041201" data-id="900000041201" class="station U7" d="M302.6 461.7L300.4 463.9"></path><path id="station-900000018102" data-id="900000018102" class="station U7" d="M264 231.8V228.8"></path><path id="station-900000035101" data-id="900000035101" class="station U7" d="M235 231.8V228.7"></path><path id="station-900000034102" data-id="900000034102" class="station U7 wifi" d="M134 229V232"></path><path id="station-900000029301" data-id="900000029301" class="station U7 wifi" d="M83.7 243.1L85.9 245.2"></path><path id="station-900000033101" data-id="900000033101" class="station U7 wifi" d="M104.3 231.7V228.7"></path><path id="station-900000036101" data-id="900000036101" class="station U7 wifi" d="M207.1 232V229"></path><path id="station-900000034101" data-id="900000034101" class="station U7 wifi" d="M170.7 231.8V228.8"></path><path id="station-900000078103" data-id="900000078103" class="station U7" d="M708 496.9H705"></path><path id="station-900000080202" data-id="900000080202" class="station U7 wifi" d="M705.4 544H708.4"></path><path id="station-900000080401" data-id="900000080401" class="station U7 wifi" d="M705.4 580H708.4"></path><path id="station-900000080402" data-id="900000080402" class="station U7 wifi" d="M705.4 601H708.4"></path><path id="station-900000082202" data-id="900000082202" class="station U7" d="M705.4 618.5H708.4"></path><path id="station-900000019204" data-id="900000019204" class="station U7 wifi" d="M302 291.8H299"></path><path id="station-900000079201" data-id="900000079201" class="station U8 wifi" d="M656.2 504.5H653.2"></path><path id="station-900000016201" data-id="900000016201" class="station U8 wifi" d="M656.1 443.2H653.1"></path><path id="station-900000079202" data-id="900000079202" class="station U8 wifi" d="M656.2 484.8H653.2"></path><path id="station-900000007110" data-id="900000007110" class="station U8" d="M569.5 259.7L571.7 257.6"></path><path id="station-900000007103" data-id="900000007103" class="station U8 wifi" d="M557.1 247L559.3 244.8"></path><path id="station-900000085104" data-id="900000085104" class="station U8 wifi" d="M438.1 132.4L440.3 130.3"></path><path id="station-900000086160" data-id="900000086160" class="station U8 wifi" d="M426.7 121.1L428.8 119"></path><path id="station-900000096410" data-id="900000096410" class="station U8 wifi" d="M421 83.8L418.8 81.7"></path><path id="station-900000100008" data-id="900000100008" class="station U8 wifi" d="M656.5 385.9H653.5"></path><path id="station-900000085203" data-id="900000085203" class="station U8 wifi" d="M448.5 142.9L450.7 140.7"></path><path id="station-900000085202" data-id="900000085202" class="station U8 wifi" d="M459 153.4L461.2 151.2"></path><path id="station-900000100051" data-id="900000100051" class="station U8 wifi" d="M604.4 294L602.2 296.1"></path><path id="station-900000100023" data-id="900000100023" class="station U8 wifi" d="M588.6 277.8L586.4 279.9"></path><path id="station-900000009203" data-id="900000009203" class="station U8 wifi" d="M507.9 193.9L505.7 196"></path><path id="station-900000013101" data-id="900000013101" class="station U8" d="M653.2 405.2H656.2"></path><path id="station-900000009201" data-id="900000009201" class="station U9 wifi" d="M445.9 184.6L448.1 186.8"></path><path id="station-900000009101" data-id="900000009101" class="station U9 wifi" d="M418.1 211.9L416 209.8"></path><path id="station-900000002201" data-id="900000002201" class="station U9 wifi" d="M405 263H402"></path><path id="station-900000003104" data-id="900000003104" class="station U9 wifi" d="M405 297H402"></path><path id="station-900000003101" data-id="900000003101" class="station U9 wifi" d="M402 362L404.2 364.2"></path><path id="station-900000043201" data-id="900000043201" class="station U9 wifi" d="M358.3 475.2H361.6"></path><path id="station-900000061102" data-id="900000061102" class="station U9 wifi" d="M358.1 552.3H355.1"></path><path id="station-900000061101" data-id="900000061101" class="station U9 wifi" d="M354.7 570.6H357.7"></path><path id="station-900000062203" data-id="900000062203" class="station U9" d="M354.7 588.9H357.7"></path><path id="station-900000057104" data-id="900000057104" class="station S1" d="M464.6 507.2L466.7 509.4"></path><path id="station-900000200007" data-id="900000200007" class="station S1" d="M400.3 22.6L402.5 20.5"></path><path id="station-900000200006" data-id="900000200006" class="station S1" d="M393.5 15.7L395.7 13.5"></path><path id="station-900000092201" data-id="900000092201" class="station S1" d="M431.8 54L429.6 56.1"></path><path id="station-900000093201" data-id="900000093201" class="station S1" d="M439.7 62L437.5 64.2"></path><path id="station-900000060101" data-id="900000060101" class="station S1" d="M412.3 559.3L414.4 561.5"></path><path id="station-900000066102" data-id="900000066102" class="station S1" d="M337.8 633.6L335.7 631.5"></path><path id="station-900000049202" data-id="900000049202" class="station S1" d="M262.9 664.2V667.2"></path><path id="station-900000049201" data-id="900000049201" class="station S1" d="M218.6 666.8V663.8"></path><path id="station-900000050301" data-id="900000050301" class="station S1" d="M190.5 637.9L188.3 640"></path><path id="station-900000050355" data-id="900000050355" class="station S1" d="M162.9 628.5V631.6"></path><path id="station-900000066101" data-id="900000066101" class="station S1" d="M314.7 651.5L316.9 653.7"></path><path id="station-900000063101" data-id="900000063101" class="station S1" d="M390.8 585L388.6 582.9"></path><path id="station-900000068301" data-id="900000068301" class="station S2" d="M513.8 607L516 604.8"></path><path id="station-900000074202" data-id="900000074202" class="station S2" d="M545.5 685.5H542.5"></path><path id="station-900000245028" data-id="900000245028" class="station S2" d="M545.6 738H542.6"></path><path id="station-900000135001" data-id="900000135001" class="station S2" d="M705.8 57.5L708 59.7"></path><path id="station-900000350162" data-id="900000350162" class="station S2" d="M717.1 46.4L719.3 48.6"></path><path id="station-900000350161" data-id="900000350161" class="station S2" d="M737.3 26.3L739.4 28.5"></path><path id="station-900000350163" data-id="900000350163" class="station S2" d="M727.4 36.2L729.6 38.4"></path><path id="station-900000073101" data-id="900000073101" class="station S2" d="M537.3 626.9L535.1 629"></path><path id="station-900000072101" data-id="900000072101" class="station S2" d="M542.5 658.7H545.5"></path><path id="station-900000074201" data-id="900000074201" class="station S2" d="M542.5 717.5H545.5"></path><path id="station-900000220114" data-id="900000220114" class="station S2" d="M315.6 734.1V731.6"></path><path id="station-900000091205" data-id="900000091205" class="station S25" d="M298.9 71.4L301 69.2"></path><path id="station-900000091203" data-id="900000091203" class="station S25" d="M287.7 60.5L289.8 58.3"></path><path id="station-900000096405" data-id="900000096405" class="station S25" d="M358 102.6V105.6"></path><path id="station-900000085105" data-id="900000085105" class="station S25" d="M449.8 102.6V105.4"></path><path id="station-900000063452" data-id="900000063452" class="station S25" d="M485.3 611.4L483.2 609.2"></path><path id="station-900000064256" data-id="900000064256" class="station S25" d="M407.5 685.2L409.7 687.4"></path><path id="station-900000064201" data-id="900000064201" class="station S25" d="M383.6 713.5L381.5 711.4"></path><path id="station-900000067221" data-id="900000067221" class="station S25" d="M464.8 632.4L462.7 630.3"></path><path id="station-900000160001" data-id="900000160001" class="station S3" d="M824.8 416L827 413.9"></path><path id="station-900000160002" data-id="900000160002" class="station S3" d="M843.3 434.3L845.5 432.1"></path><path id="station-900000183001" data-id="900000183001" class="station S3" d="M1010.8 532.6L1013 530.4"></path><path id="station-900000182001" data-id="900000182001" class="station S3" d="M972.6 494.4L974.8 492.3"></path><path id="station-900000182002" data-id="900000182002" class="station S3" d="M991.8 513.8L994 511.6"></path><path id="station-900000183002" data-id="900000183002" class="station S3" d="M1027.6 549.4L1029.8 547.2"></path><path id="station-900000180002" data-id="900000180002" class="station S3" d="M934.6 456.3L936.8 454.2"></path><path id="station-900000180001" data-id="900000180001" class="station S3" d="M953.7 475.4L955.8 473.3"></path><path id="station-900000200011" data-id="900000200011" class="station S8" d="M478 39.3V41.8"></path><path id="station-900000200012" data-id="900000200012" class="station S8" d="M530 39.3V41.8"></path><path id="station-900000200013" data-id="900000200013" class="station S8" d="M598 39.3V41.8"></path></g></svg>
